<svg width="34.000000" height="34.000000" viewBox="0 0 34 34" fill="none" xmlns="http://www.w3.org/2000/svg" xmlns:xlink="http://www.w3.org/1999/xlink">
	<desc>
			Created with Pixso.
	</desc>
	<defs>
		<filter id="filter_5504_29095_dd" x="2.888672" y="2.917969" width="28.861328" height="28.082031" filterUnits="userSpaceOnUse" color-interpolation-filters="sRGB">
			<feFlood flood-opacity="0" result="BackgroundImageFix"/>
			<feBlend mode="normal" in="SourceGraphic" in2="BackgroundImageFix" result="shape"/>
			<feColorMatrix in="SourceAlpha" type="matrix" values="0 0 0 0 0 0 0 0 0 0 0 0 0 0 0 0 0 0 127 0" result="hardAlpha"/>
			<feOffset dx="1" dy="1"/>
			<feGaussianBlur stdDeviation="0.666667"/>
			<feComposite in2="hardAlpha" operator="arithmetic" k2="-1" k3="1"/>
			<feColorMatrix type="matrix" values="0 0 0 0 0.53333 0 0 0 0 0.64706 0 0 0 0 0.74902 0 0 0 0.6 0"/>
			<feBlend mode="normal" in2="shape" result="effect_innerShadow_1"/>
			<feColorMatrix in="SourceAlpha" type="matrix" values="0 0 0 0 0 0 0 0 0 0 0 0 0 0 0 0 0 0 127 0" result="hardAlpha"/>
			<feOffset dx="-1" dy="-2"/>
			<feGaussianBlur stdDeviation="0.666667"/>
			<feComposite in2="hardAlpha" operator="arithmetic" k2="-1" k3="1"/>
			<feColorMatrix type="matrix" values="0 0 0 0 0.53333 0 0 0 0 0.64706 0 0 0 0 0.74902 0 0 0 0.3 0"/>
			<feBlend mode="normal" in2="effect_innerShadow_1" result="effect_innerShadow_2"/>
			<feColorMatrix in="SourceAlpha" type="matrix" values="0 0 0 0 0 0 0 0 0 0 0 0 0 0 0 0 0 0 127 0" result="hardAlpha"/>
			<feOffset dx="-1" dy="-2"/>
			<feGaussianBlur stdDeviation="1"/>
			<feComposite in2="hardAlpha" operator="arithmetic" k2="-1" k3="1"/>
			<feColorMatrix type="matrix" values="0 0 0 0 1 0 0 0 0 1 0 0 0 0 1 0 0 0 0.4 0"/>
			<feBlend mode="normal" in2="effect_innerShadow_2" result="effect_innerShadow_3"/>
		</filter>
		<filter id="filter_5504_29098_dd" x="21.607422" y="4.542969" width="6.667969" height="6.667969" filterUnits="userSpaceOnUse" color-interpolation-filters="sRGB">
			<feFlood flood-opacity="0" result="BackgroundImageFix"/>
			<feBlend mode="normal" in="SourceGraphic" in2="BackgroundImageFix" result="shape"/>
			<feColorMatrix in="SourceAlpha" type="matrix" values="0 0 0 0 0 0 0 0 0 0 0 0 0 0 0 0 0 0 127 0" result="hardAlpha"/>
			<feOffset dx="1.35294" dy="1.35294"/>
			<feGaussianBlur stdDeviation="1.35294"/>
			<feComposite in2="hardAlpha" operator="arithmetic" k2="-1" k3="1"/>
			<feColorMatrix type="matrix" values="0 0 0 0 0 0 0 0 0 0.36863 0 0 0 0 0.74118 0 0 0 0.4 0"/>
			<feBlend mode="normal" in2="shape" result="effect_innerShadow_1"/>
		</filter>
		<linearGradient x1="21.481062" y1="5.644277" x2="28.463182" y2="10.093368" id="paint_linear_5504_29098_0" gradientUnits="userSpaceOnUse">
			<stop stop-color="#39C7EC"/>
			<stop offset="0.000100" stop-color="#39C7EC"/>
			<stop offset="1.000000" stop-color="#0050EC"/>
		</linearGradient>
	</defs>
	<g filter="url(#filter_5504_29095_dd)">
		<path d="M14.29 11.85L15.1 14.76C15.85 17.5 16.23 18.87 17.34 19.49C18.46 20.11 19.87 19.75 22.69 19.01L25.69 18.23C28.51 17.5 29.92 17.13 30.57 16.05C31.21 14.98 30.83 13.6 30.07 10.87L29.27 7.96C28.51 5.22 28.14 3.85 27.02 3.23C25.91 2.61 24.5 2.98 21.67 3.71L18.68 4.49C15.86 5.22 14.44 5.59 13.8 6.67C13.16 7.75 13.54 9.11 14.29 11.85Z" fill="#D0E2F3" fill-opacity="1.000000" fill-rule="nonzero"/>
		<path d="M2.93 6.42C2.97 6.27 3.04 6.13 3.13 6.01C3.23 5.89 3.34 5.79 3.48 5.71C3.61 5.64 3.76 5.59 3.91 5.57C4.07 5.55 4.22 5.57 4.37 5.61L7.02 6.34C7.73 6.53 8.37 6.91 8.89 7.42C9.41 7.93 9.78 8.57 9.98 9.27L13.34 21.42L13.58 22.27C14.58 22.64 15.42 23.34 15.96 24.25L16.44 24.1L30.28 20.5C30.43 20.46 30.58 20.46 30.74 20.48C30.89 20.5 31.03 20.55 31.17 20.63C31.3 20.7 31.42 20.81 31.51 20.93C31.6 21.05 31.67 21.19 31.71 21.34C31.75 21.49 31.75 21.65 31.74 21.8C31.71 21.95 31.66 22.1 31.58 22.23C31.51 22.36 31.4 22.48 31.28 22.57C31.16 22.66 31.02 22.73 30.87 22.77L17.08 26.35L16.57 26.51C16.56 28.49 15.19 30.3 13.12 30.84C10.64 31.49 8.09 30.06 7.42 27.65C6.76 25.25 8.23 22.77 10.71 22.13C10.84 22.09 10.96 22.07 11.08 22.04L7.73 9.9C7.64 9.58 7.47 9.3 7.23 9.07C7 8.84 6.71 8.68 6.4 8.6L3.74 7.86C3.59 7.82 3.46 7.75 3.33 7.66C3.21 7.56 3.11 7.44 3.04 7.31C2.96 7.18 2.91 7.03 2.89 6.88C2.87 6.72 2.89 6.57 2.93 6.42Z" fill="#D0E2F3" fill-opacity="1.000000" fill-rule="nonzero"/>
	</g>
	<g filter="url(#filter_5504_29098_dd)">
		<path d="M22.94 5.25L25.36 4.6C26.32 4.34 27.3 4.91 27.56 5.87L28.21 8.29C28.47 9.25 27.9 10.24 26.94 10.5L24.52 11.15C23.56 11.4 22.57 10.83 22.31 9.87L21.66 7.45C21.41 6.49 21.98 5.5 22.94 5.25Z" fill="url(#paint_linear_5504_29098_0)" fill-opacity="1.000000" fill-rule="nonzero"/>
	</g>
</svg>
