<svg width="46.000000" height="46.000000" viewBox="0 0 46 46" fill="none" xmlns="http://www.w3.org/2000/svg" xmlns:xlink="http://www.w3.org/1999/xlink">
	<desc>
			Created with Pixso.
	</desc>
	<defs>
		<filter id="filter_5504_28901_dd" x="3.833984" y="3.835938" width="38.824219" height="38.824219" filterUnits="userSpaceOnUse" color-interpolation-filters="sRGB">
			<feFlood flood-opacity="0" result="BackgroundImageFix"/>
			<feBlend mode="normal" in="SourceGraphic" in2="BackgroundImageFix" result="shape"/>
			<feColorMatrix in="SourceAlpha" type="matrix" values="0 0 0 0 0 0 0 0 0 0 0 0 0 0 0 0 0 0 127 0" result="hardAlpha"/>
			<feOffset dx="1.35294" dy="1.35294"/>
			<feGaussianBlur stdDeviation="0.45098"/>
			<feComposite in2="hardAlpha" operator="arithmetic" k2="-1" k3="1"/>
			<feColorMatrix type="matrix" values="0 0 0 0 0 0 0 0 0 0.36863 0 0 0 0 0.74118 0 0 0 0.5 0"/>
			<feBlend mode="normal" in2="shape" result="effect_innerShadow_1"/>
		</filter>
		<filter id="filter_5504_28904_dd" x="9.585938" y="9.582031" width="23.000000" height="23.000000" filterUnits="userSpaceOnUse" color-interpolation-filters="sRGB">
			<feFlood flood-opacity="0" result="BackgroundImageFix"/>
			<feBlend mode="normal" in="SourceGraphic" in2="BackgroundImageFix" result="shape"/>
			<feColorMatrix in="SourceAlpha" type="matrix" values="0 0 0 0 0 0 0 0 0 0 0 0 0 0 0 0 0 0 127 0" result="hardAlpha"/>
			<feOffset dx="1" dy="1"/>
			<feGaussianBlur stdDeviation="0.666667"/>
			<feComposite in2="hardAlpha" operator="arithmetic" k2="-1" k3="1"/>
			<feColorMatrix type="matrix" values="0 0 0 0 0.53333 0 0 0 0 0.64706 0 0 0 0 0.74902 0 0 0 0.6 0"/>
			<feBlend mode="normal" in2="shape" result="effect_innerShadow_1"/>
			<feColorMatrix in="SourceAlpha" type="matrix" values="0 0 0 0 0 0 0 0 0 0 0 0 0 0 0 0 0 0 127 0" result="hardAlpha"/>
			<feOffset dx="-1" dy="-2"/>
			<feGaussianBlur stdDeviation="0.666667"/>
			<feComposite in2="hardAlpha" operator="arithmetic" k2="-1" k3="1"/>
			<feColorMatrix type="matrix" values="0 0 0 0 0.53333 0 0 0 0 0.64706 0 0 0 0 0.74902 0 0 0 0.3 0"/>
			<feBlend mode="normal" in2="effect_innerShadow_1" result="effect_innerShadow_2"/>
			<feColorMatrix in="SourceAlpha" type="matrix" values="0 0 0 0 0 0 0 0 0 0 0 0 0 0 0 0 0 0 127 0" result="hardAlpha"/>
			<feOffset dx="-1" dy="-2"/>
			<feGaussianBlur stdDeviation="1"/>
			<feComposite in2="hardAlpha" operator="arithmetic" k2="-1" k3="1"/>
			<feColorMatrix type="matrix" values="0 0 0 0 1 0 0 0 0 1 0 0 0 0 1 0 0 0 0.4 0"/>
			<feBlend mode="normal" in2="effect_innerShadow_2" result="effect_innerShadow_3"/>
		</filter>
		<filter id="filter_5504_28905_dd" x="7.187500" y="16.769531" width="21.562500" height="11.978516" filterUnits="userSpaceOnUse" color-interpolation-filters="sRGB">
			<feFlood flood-opacity="0" result="BackgroundImageFix"/>
			<feBlend mode="normal" in="SourceGraphic" in2="BackgroundImageFix" result="shape"/>
			<feColorMatrix in="SourceAlpha" type="matrix" values="0 0 0 0 0 0 0 0 0 0 0 0 0 0 0 0 0 0 127 0" result="hardAlpha"/>
			<feOffset dx="1.35294" dy="1.35294"/>
			<feGaussianBlur stdDeviation="0.45098"/>
			<feComposite in2="hardAlpha" operator="arithmetic" k2="-1" k3="1"/>
			<feColorMatrix type="matrix" values="0 0 0 0 0 0 0 0 0 0.36863 0 0 0 0 0.74118 0 0 0 0.5 0"/>
			<feBlend mode="normal" in2="shape" result="effect_innerShadow_1"/>
		</filter>
		<linearGradient x1="5.664009" y1="3.835934" x2="41.233028" y2="42.659409" id="paint_linear_5504_28901_0" gradientUnits="userSpaceOnUse">
			<stop stop-color="#0050EC"/>
			<stop offset="1.000000" stop-color="#39C7EC"/>
		</linearGradient>
		<linearGradient x1="8.203860" y1="16.769524" x2="27.958256" y2="28.748695" id="paint_linear_5504_28905_0" gradientUnits="userSpaceOnUse">
			<stop stop-color="#0050EC"/>
			<stop offset="1.000000" stop-color="#39C7EC"/>
		</linearGradient>
	</defs>
	<g filter="url(#filter_5504_28901_dd)">
		<path d="M21.084 3.83594C11.5566 3.83594 3.83398 11.5586 3.83398 21.0859C3.83398 30.6133 11.5566 38.3359 21.084 38.3359C24.4336 38.3359 27.5605 37.3809 30.207 35.7285C31.9062 37.7734 33.543 39.7773 35.457 41.748C36.5137 42.8379 38.0918 42.9941 39.2227 41.9785C39.6211 41.6191 40.0898 41.1777 40.6328 40.6367C41.1758 40.0957 41.6172 39.6289 41.9766 39.2285C42.9941 38.1016 42.8359 36.5254 41.7461 35.4707C39.7715 33.5605 37.7637 31.9258 35.7148 30.2285C37.375 27.5781 38.334 24.4434 38.334 21.0859C38.334 11.5586 30.6113 3.83594 21.084 3.83594Z" clip-rule="evenodd" fill="url(#paint_linear_5504_28901_0)" fill-opacity="1.000000" fill-rule="evenodd"/>
	</g>
	<g filter="url(#filter_5504_28904_dd)">
		<circle cx="21.085938" cy="21.082031" r="11.500000" fill="#D0E2F3" fill-opacity="1.000000"/>
	</g>
	<g filter="url(#filter_5504_28905_dd)">
		<path d="M28.18 17.33C28.93 18.08 28.93 19.29 28.18 20.04L22.43 25.79C21.68 26.53 20.47 26.53 19.72 25.79L16.29 22.35L10.45 28.18C9.71 28.93 8.49 28.93 7.74 28.18C7 27.43 7 26.22 7.74 25.47L14.93 18.28C15.68 17.54 16.89 17.54 17.64 18.28L21.08 21.72L25.47 17.33C26.22 16.58 27.43 16.58 28.18 17.33Z" fill="url(#paint_linear_5504_28905_0)" fill-opacity="1.000000" fill-rule="evenodd"/>
	</g>
</svg>
