<svg width="46.000000" height="46.000000" viewBox="0 0 46 46" fill="none" xmlns="http://www.w3.org/2000/svg" xmlns:xlink="http://www.w3.org/1999/xlink">
	<desc>
			Created with Pixso.
	</desc>
	<defs>
		<filter id="filter_5504_28863_dd" x="3.830078" y="3.832031" width="38.333984" height="38.333984" filterUnits="userSpaceOnUse" color-interpolation-filters="sRGB">
			<feFlood flood-opacity="0" result="BackgroundImageFix"/>
			<feBlend mode="normal" in="SourceGraphic" in2="BackgroundImageFix" result="shape"/>
			<feColorMatrix in="SourceAlpha" type="matrix" values="0 0 0 0 0 0 0 0 0 0 0 0 0 0 0 0 0 0 127 0" result="hardAlpha"/>
			<feOffset dx="1" dy="1"/>
			<feGaussianBlur stdDeviation="0.666667"/>
			<feComposite in2="hardAlpha" operator="arithmetic" k2="-1" k3="1"/>
			<feColorMatrix type="matrix" values="0 0 0 0 0.53333 0 0 0 0 0.64706 0 0 0 0 0.74902 0 0 0 0.6 0"/>
			<feBlend mode="normal" in2="shape" result="effect_innerShadow_1"/>
			<feColorMatrix in="SourceAlpha" type="matrix" values="0 0 0 0 0 0 0 0 0 0 0 0 0 0 0 0 0 0 127 0" result="hardAlpha"/>
			<feOffset dx="-1" dy="-2"/>
			<feGaussianBlur stdDeviation="0.666667"/>
			<feComposite in2="hardAlpha" operator="arithmetic" k2="-1" k3="1"/>
			<feColorMatrix type="matrix" values="0 0 0 0 0.53333 0 0 0 0 0.64706 0 0 0 0 0.74902 0 0 0 0.3 0"/>
			<feBlend mode="normal" in2="effect_innerShadow_1" result="effect_innerShadow_2"/>
			<feColorMatrix in="SourceAlpha" type="matrix" values="0 0 0 0 0 0 0 0 0 0 0 0 0 0 0 0 0 0 127 0" result="hardAlpha"/>
			<feOffset dx="-1" dy="-2"/>
			<feGaussianBlur stdDeviation="1"/>
			<feComposite in2="hardAlpha" operator="arithmetic" k2="-1" k3="1"/>
			<feColorMatrix type="matrix" values="0 0 0 0 1 0 0 0 0 1 0 0 0 0 1 0 0 0 0.4 0"/>
			<feBlend mode="normal" in2="effect_innerShadow_2" result="effect_innerShadow_3"/>
		</filter>
		<filter id="filter_5504_28864_dd" x="4.017578" y="3.832031" width="37.960938" height="9.583984" filterUnits="userSpaceOnUse" color-interpolation-filters="sRGB">
			<feFlood flood-opacity="0" result="BackgroundImageFix"/>
			<feBlend mode="normal" in="SourceGraphic" in2="BackgroundImageFix" result="shape"/>
			<feColorMatrix in="SourceAlpha" type="matrix" values="0 0 0 0 0 0 0 0 0 0 0 0 0 0 0 0 0 0 127 0" result="hardAlpha"/>
			<feOffset dx="1.35294" dy="1.35294"/>
			<feGaussianBlur stdDeviation="0.45098"/>
			<feComposite in2="hardAlpha" operator="arithmetic" k2="-1" k3="1"/>
			<feColorMatrix type="matrix" values="0 0 0 0 0 0 0 0 0 0.36863 0 0 0 0 0.74118 0 0 0 0.5 0"/>
			<feBlend mode="normal" in2="shape" result="effect_innerShadow_1"/>
		</filter>
		<filter id="filter_5504_28865_dd" x="3.830078" y="3.832031" width="38.333984" height="38.333984" filterUnits="userSpaceOnUse" color-interpolation-filters="sRGB">
			<feFlood flood-opacity="0" result="BackgroundImageFix"/>
			<feBlend mode="normal" in="SourceGraphic" in2="BackgroundImageFix" result="shape"/>
			<feColorMatrix in="SourceAlpha" type="matrix" values="0 0 0 0 0 0 0 0 0 0 0 0 0 0 0 0 0 0 127 0" result="hardAlpha"/>
			<feOffset dx="1.35294" dy="1.35294"/>
			<feGaussianBlur stdDeviation="1.35294"/>
			<feComposite in2="hardAlpha" operator="arithmetic" k2="-1" k3="1"/>
			<feColorMatrix type="matrix" values="0 0 0 0 0 0 0 0 0 0.36863 0 0 0 0 0.74118 0 0 0 0.4 0"/>
			<feBlend mode="normal" in2="shape" result="effect_innerShadow_1"/>
		</filter>
		<filter id="filter_5504_28866_dd" x="1.914062" y="1.917969" width="43.125000" height="11.500000" filterUnits="userSpaceOnUse" color-interpolation-filters="sRGB">
			<feFlood flood-opacity="0" result="BackgroundImageFix"/>
			<feBlend mode="normal" in="SourceGraphic" in2="BackgroundImageFix" result="shape"/>
			<feColorMatrix in="SourceAlpha" type="matrix" values="0 0 0 0 0 0 0 0 0 0 0 0 0 0 0 0 0 0 127 0" result="hardAlpha"/>
			<feOffset dx="1.35294" dy="1.35294"/>
			<feGaussianBlur stdDeviation="1.35294"/>
			<feComposite in2="hardAlpha" operator="arithmetic" k2="-1" k3="1"/>
			<feColorMatrix type="matrix" values="0 0 0 0 0 0 0 0 0 0.36863 0 0 0 0 0.74118 0 0 0 0.4 0"/>
			<feBlend mode="normal" in2="shape" result="effect_innerShadow_1"/>
		</filter>
		<filter id="filter_5504_28868_dd" x="8.623047" y="18.210938" width="13.416016" height="19.166016" filterUnits="userSpaceOnUse" color-interpolation-filters="sRGB">
			<feFlood flood-opacity="0" result="BackgroundImageFix"/>
			<feBlend mode="normal" in="SourceGraphic" in2="BackgroundImageFix" result="shape"/>
			<feColorMatrix in="SourceAlpha" type="matrix" values="0 0 0 0 0 0 0 0 0 0 0 0 0 0 0 0 0 0 127 0" result="hardAlpha"/>
			<feOffset dx="1.35294" dy="1.35294"/>
			<feGaussianBlur stdDeviation="0.45098"/>
			<feComposite in2="hardAlpha" operator="arithmetic" k2="-1" k3="1"/>
			<feColorMatrix type="matrix" values="0 0 0 0 0 0 0 0 0 0.36863 0 0 0 0 0.74118 0 0 0 0.5 0"/>
			<feBlend mode="normal" in2="shape" result="effect_innerShadow_1"/>
		</filter>
		<filter id="filter_5504_28869_dd" x="25.873047" y="18.210938" width="11.500000" height="7.666016" filterUnits="userSpaceOnUse" color-interpolation-filters="sRGB">
			<feFlood flood-opacity="0" result="BackgroundImageFix"/>
			<feBlend mode="normal" in="SourceGraphic" in2="BackgroundImageFix" result="shape"/>
			<feColorMatrix in="SourceAlpha" type="matrix" values="0 0 0 0 0 0 0 0 0 0 0 0 0 0 0 0 0 0 127 0" result="hardAlpha"/>
			<feOffset dx="1.35294" dy="1.35294"/>
			<feGaussianBlur stdDeviation="0.45098"/>
			<feComposite in2="hardAlpha" operator="arithmetic" k2="-1" k3="1"/>
			<feColorMatrix type="matrix" values="0 0 0 0 0 0 0 0 0 0.36863 0 0 0 0 0.74118 0 0 0 0.5 0"/>
			<feBlend mode="normal" in2="shape" result="effect_innerShadow_1"/>
		</filter>
		<filter id="filter_5504_28870_dd" x="25.873047" y="29.710938" width="11.500000" height="7.666016" filterUnits="userSpaceOnUse" color-interpolation-filters="sRGB">
			<feFlood flood-opacity="0" result="BackgroundImageFix"/>
			<feBlend mode="normal" in="SourceGraphic" in2="BackgroundImageFix" result="shape"/>
			<feColorMatrix in="SourceAlpha" type="matrix" values="0 0 0 0 0 0 0 0 0 0 0 0 0 0 0 0 0 0 127 0" result="hardAlpha"/>
			<feOffset dx="1.35294" dy="1.35294"/>
			<feGaussianBlur stdDeviation="0.45098"/>
			<feComposite in2="hardAlpha" operator="arithmetic" k2="-1" k3="1"/>
			<feColorMatrix type="matrix" values="0 0 0 0 0 0 0 0 0 0.36863 0 0 0 0 0.74118 0 0 0 0.5 0"/>
			<feBlend mode="normal" in2="shape" result="effect_innerShadow_1"/>
		</filter>
		<linearGradient x1="5.806920" y1="3.832024" x2="40.585403" y2="13.416016" id="paint_linear_5504_28864_0" gradientUnits="userSpaceOnUse">
			<stop stop-color="#0050EC"/>
			<stop offset="1.000000" stop-color="#39C7EC"/>
		</linearGradient>
		<linearGradient x1="9.255453" y1="37.376961" x2="21.547075" y2="18.210293" id="paint_linear_5504_28868_0" gradientUnits="userSpaceOnUse">
			<stop stop-color="#0050EC"/>
			<stop offset="1.000000" stop-color="#39C7EC"/>
		</linearGradient>
		<linearGradient x1="26.415106" y1="25.876953" x2="36.950783" y2="18.210285" id="paint_linear_5504_28869_0" gradientUnits="userSpaceOnUse">
			<stop stop-color="#0050EC"/>
			<stop offset="1.000000" stop-color="#39C7EC"/>
		</linearGradient>
		<linearGradient x1="26.415106" y1="37.376953" x2="36.950783" y2="29.710285" id="paint_linear_5504_28870_0" gradientUnits="userSpaceOnUse">
			<stop stop-color="#0050EC"/>
			<stop offset="1.000000" stop-color="#39C7EC"/>
		</linearGradient>
	</defs>
	<g filter="url(#filter_5504_28863_dd)">
		<path d="M7.24 5.02C9.79 4.48 14.6 3.83 22.99 3.83C31.38 3.83 36.19 4.48 38.75 5.02C40.37 5.37 41.45 6.67 41.62 8.32C41.87 10.76 42.16 15.24 42.16 22.99C42.16 30.75 41.87 35.23 41.62 37.67C41.45 39.32 40.37 40.62 38.75 40.96C36.19 41.51 31.38 42.16 22.99 42.16C14.6 42.16 9.79 41.51 7.24 40.96C5.62 40.62 4.53 39.32 4.36 37.67C4.11 35.23 3.83 30.75 3.83 22.99C3.83 15.24 4.11 10.76 4.36 8.32C4.53 6.67 5.62 5.37 7.24 5.02Z" fill="#D0E2F3" fill-opacity="1.000000" fill-rule="nonzero"/>
	</g>
	<g filter="url(#filter_5504_28864_dd)">
		<path d="M41.9785 13.416L4.01758 13.416C4.11914 11.1523 4.24805 9.5 4.37109 8.32227C4.54102 6.67773 5.62305 5.37305 7.24219 5.02734C9.79688 4.48438 14.6113 3.83203 22.998 3.83203C31.3867 3.83203 36.1992 4.48438 38.7559 5.02734C40.373 5.37305 41.457 6.67773 41.627 8.32227C41.748 9.5 41.877 11.1523 41.9785 13.416Z" clip-rule="evenodd" fill="url(#paint_linear_5504_28864_0)" fill-opacity="1.000000" fill-rule="evenodd"/>
	</g>
	<g filter="url(#filter_5504_28868_dd)">
		<path d="M10.4 36.93C11.38 37.16 12.94 37.37 15.33 37.37C17.71 37.37 19.27 37.16 20.25 36.93C21.23 36.7 21.8 35.86 21.86 34.87C21.95 33.6 22.03 31.41 22.03 27.79C22.03 24.17 21.95 21.98 21.86 20.71C21.8 19.72 21.23 18.87 20.25 18.65C19.27 18.42 17.71 18.21 15.33 18.21C12.94 18.21 11.38 18.42 10.4 18.65C9.43 18.87 8.85 19.72 8.79 20.71C8.71 21.98 8.62 24.17 8.62 27.79C8.62 31.41 8.71 33.6 8.79 34.87C8.85 35.86 9.43 36.7 10.4 36.93Z" fill="url(#paint_linear_5504_28868_0)" fill-opacity="1.000000" fill-rule="nonzero"/>
	</g>
	<g filter="url(#filter_5504_28869_dd)">
		<path d="M27.46 25.7C28.3 25.79 29.62 25.87 31.62 25.87C33.61 25.87 34.93 25.79 35.78 25.7C36.62 25.61 37.23 25.01 37.3 24.17C37.34 23.66 37.37 22.97 37.37 22.04C37.37 21.11 37.34 20.42 37.3 19.91C37.23 19.06 36.62 18.46 35.78 18.38C34.93 18.29 33.61 18.21 31.62 18.21C29.62 18.21 28.3 18.29 27.46 18.38C26.62 18.46 26.01 19.06 25.94 19.91C25.9 20.42 25.87 21.11 25.87 22.04C25.87 22.97 25.9 23.66 25.94 24.17C26.01 25.01 26.62 25.61 27.46 25.7Z" fill="url(#paint_linear_5504_28869_0)" fill-opacity="1.000000" fill-rule="nonzero"/>
	</g>
	<g filter="url(#filter_5504_28870_dd)">
		<path d="M27.46 37.2C28.3 37.29 29.62 37.37 31.62 37.37C33.61 37.37 34.93 37.29 35.78 37.2C36.62 37.11 37.23 36.51 37.3 35.67C37.34 35.16 37.37 34.47 37.37 33.54C37.37 32.61 37.34 31.92 37.3 31.41C37.23 30.56 36.62 29.96 35.78 29.88C34.93 29.79 33.61 29.71 31.62 29.71C29.62 29.71 28.3 29.79 27.46 29.88C26.62 29.96 26.01 30.56 25.94 31.41C25.9 31.92 25.87 32.61 25.87 33.54C25.87 34.47 25.9 35.16 25.94 35.67C26.01 36.51 26.62 37.11 27.46 37.2Z" fill="url(#paint_linear_5504_28870_0)" fill-opacity="1.000000" fill-rule="nonzero"/>
	</g>
</svg>
