<svg width="34.000000" height="34.000000" viewBox="0 0 34 34" fill="none" xmlns="http://www.w3.org/2000/svg" xmlns:xlink="http://www.w3.org/1999/xlink">
	<desc>
			Created with Pixso.
	</desc>
	<defs>
		<filter id="filter_5504_29090_dd" x="3.000000" y="3.000000" width="28.000000" height="27.000000" filterUnits="userSpaceOnUse" color-interpolation-filters="sRGB">
			<feFlood flood-opacity="0" result="BackgroundImageFix"/>
			<feBlend mode="normal" in="SourceGraphic" in2="BackgroundImageFix" result="shape"/>
			<feColorMatrix in="SourceAlpha" type="matrix" values="0 0 0 0 0 0 0 0 0 0 0 0 0 0 0 0 0 0 127 0" result="hardAlpha"/>
			<feOffset dx="1" dy="1"/>
			<feGaussianBlur stdDeviation="0.666667"/>
			<feComposite in2="hardAlpha" operator="arithmetic" k2="-1" k3="1"/>
			<feColorMatrix type="matrix" values="0 0 0 0 0.53333 0 0 0 0 0.64706 0 0 0 0 0.74902 0 0 0 0.6 0"/>
			<feBlend mode="normal" in2="shape" result="effect_innerShadow_1"/>
			<feColorMatrix in="SourceAlpha" type="matrix" values="0 0 0 0 0 0 0 0 0 0 0 0 0 0 0 0 0 0 127 0" result="hardAlpha"/>
			<feOffset dx="-1" dy="-2"/>
			<feGaussianBlur stdDeviation="0.666667"/>
			<feComposite in2="hardAlpha" operator="arithmetic" k2="-1" k3="1"/>
			<feColorMatrix type="matrix" values="0 0 0 0 0.53333 0 0 0 0 0.64706 0 0 0 0 0.74902 0 0 0 0.3 0"/>
			<feBlend mode="normal" in2="effect_innerShadow_1" result="effect_innerShadow_2"/>
			<feColorMatrix in="SourceAlpha" type="matrix" values="0 0 0 0 0 0 0 0 0 0 0 0 0 0 0 0 0 0 127 0" result="hardAlpha"/>
			<feOffset dx="-1" dy="-2"/>
			<feGaussianBlur stdDeviation="1"/>
			<feComposite in2="hardAlpha" operator="arithmetic" k2="-1" k3="1"/>
			<feColorMatrix type="matrix" values="0 0 0 0 1 0 0 0 0 1 0 0 0 0 1 0 0 0 0.4 0"/>
			<feBlend mode="normal" in2="effect_innerShadow_2" result="effect_innerShadow_3"/>
		</filter>
		<filter id="filter_5504_29091_dd" x="3.000000" y="9.500000" width="7.000000" height="3.000000" filterUnits="userSpaceOnUse" color-interpolation-filters="sRGB">
			<feFlood flood-opacity="0" result="BackgroundImageFix"/>
			<feBlend mode="normal" in="SourceGraphic" in2="BackgroundImageFix" result="shape"/>
			<feColorMatrix in="SourceAlpha" type="matrix" values="0 0 0 0 0 0 0 0 0 0 0 0 0 0 0 0 0 0 127 0" result="hardAlpha"/>
			<feOffset dx="1.35294" dy="1.35294"/>
			<feGaussianBlur stdDeviation="1.35294"/>
			<feComposite in2="hardAlpha" operator="arithmetic" k2="-1" k3="1"/>
			<feColorMatrix type="matrix" values="0 0 0 0 0 0 0 0 0 0.36863 0 0 0 0 0.74118 0 0 0 0.4 0"/>
			<feBlend mode="normal" in2="shape" result="effect_innerShadow_1"/>
		</filter>
		<filter id="filter_5504_29092_dd" x="3.000000" y="15.000000" width="9.000000" height="3.000000" filterUnits="userSpaceOnUse" color-interpolation-filters="sRGB">
			<feFlood flood-opacity="0" result="BackgroundImageFix"/>
			<feBlend mode="normal" in="SourceGraphic" in2="BackgroundImageFix" result="shape"/>
			<feColorMatrix in="SourceAlpha" type="matrix" values="0 0 0 0 0 0 0 0 0 0 0 0 0 0 0 0 0 0 127 0" result="hardAlpha"/>
			<feOffset dx="1.35294" dy="1.35294"/>
			<feGaussianBlur stdDeviation="1.35294"/>
			<feComposite in2="hardAlpha" operator="arithmetic" k2="-1" k3="1"/>
			<feColorMatrix type="matrix" values="0 0 0 0 0 0 0 0 0 0.36863 0 0 0 0 0.74118 0 0 0 0.4 0"/>
			<feBlend mode="normal" in2="shape" result="effect_innerShadow_1"/>
		</filter>
		<linearGradient x1="3.329948" y1="9.499999" x2="9.742968" y2="12.500001" id="paint_linear_5504_29091_0" gradientUnits="userSpaceOnUse">
			<stop stop-color="#39C7EC"/>
			<stop offset="0.000100" stop-color="#39C7EC"/>
			<stop offset="1.000000" stop-color="#0050EC"/>
		</linearGradient>
		<linearGradient x1="3.424218" y1="15.000000" x2="11.669531" y2="18.000000" id="paint_linear_5504_29092_0" gradientUnits="userSpaceOnUse">
			<stop stop-color="#39C7EC"/>
			<stop offset="0.000100" stop-color="#39C7EC"/>
			<stop offset="1.000000" stop-color="#0050EC"/>
		</linearGradient>
	</defs>
	<g filter="url(#filter_5504_29090_dd)">
		<path d="M3 4.34C3 3.99 3.13 3.64 3.37 3.39C3.61 3.14 3.93 3 4.27 3L18.27 3C18.6 3 18.93 3.14 19.17 3.39C19.41 3.64 19.54 3.99 19.54 4.34L19.54 11.09L24.63 11.09C25.47 11.09 26.29 11.27 27.07 11.61C27.84 11.95 28.54 12.44 29.13 13.07C29.72 13.7 30.19 14.44 30.51 15.26C30.83 16.08 31 16.96 31 17.84L31 23.24C31 24.11 30.73 24.96 30.24 25.66C29.76 26.35 29.07 26.87 28.29 27.12C28.05 27.94 27.58 28.66 26.94 29.17C26.3 29.69 25.52 29.98 24.72 29.99C23.91 30.01 23.12 29.76 22.46 29.28C21.8 28.79 21.3 28.1 21.03 27.29L12.96 27.29C12.69 28.1 12.19 28.79 11.53 29.28C10.87 29.76 10.08 30.01 9.27 29.99C8.47 29.98 7.69 29.69 7.05 29.17C6.41 28.66 5.94 27.94 5.71 27.12C4.92 26.87 4.24 26.35 3.75 25.66C3.26 24.96 3 24.11 3 23.24L3 17.84L10.63 17.84C10.97 17.84 11.29 17.7 11.53 17.45C11.77 17.2 11.9 16.85 11.9 16.49C11.9 16.14 11.77 15.79 11.53 15.54C11.29 15.29 10.97 15.14 10.63 15.14L3 15.14L3 12.44L8.09 12.44C8.42 12.44 8.75 12.3 8.99 12.05C9.23 11.8 9.36 11.45 9.36 11.09C9.36 10.74 9.23 10.39 8.99 10.14C8.75 9.89 8.42 9.75 8.09 9.75L3 9.75L3 4.34ZM19.54 24.59L21.03 24.59C21.28 23.84 21.74 23.18 22.34 22.7C22.95 22.22 23.67 21.94 24.43 21.9C25.18 21.86 25.93 22.05 26.58 22.46C27.23 22.87 27.75 23.48 28.08 24.2C28.19 24.07 28.29 23.92 28.35 23.76C28.42 23.6 28.45 23.42 28.45 23.24L28.45 17.84C28.45 16.77 28.05 15.74 27.33 14.98C26.62 14.22 25.64 13.79 24.63 13.79L19.54 13.79L19.54 24.59ZM10.63 25.94C10.63 25.58 10.5 25.24 10.26 24.99C10.02 24.74 9.7 24.59 9.36 24.59C9.02 24.59 8.7 24.74 8.46 24.99C8.22 25.24 8.09 25.58 8.09 25.94C8.09 26.3 8.22 26.65 8.46 26.9C8.7 27.15 9.02 27.29 9.36 27.29C9.7 27.29 10.02 27.15 10.26 26.9C10.5 26.65 10.63 26.3 10.63 25.94ZM23.73 24.99C23.61 25.11 23.52 25.26 23.46 25.43C23.39 25.59 23.36 25.77 23.36 25.94C23.36 26.25 23.46 26.56 23.65 26.8C23.83 27.04 24.09 27.21 24.38 27.27C24.67 27.33 24.97 27.28 25.23 27.13C25.49 26.99 25.69 26.75 25.81 26.46C25.92 26.17 25.93 25.85 25.85 25.55C25.76 25.25 25.58 25 25.34 24.82C25.09 24.65 24.8 24.57 24.51 24.6C24.21 24.63 23.94 24.77 23.73 24.99Z" fill="#D0E2F3" fill-opacity="1.000000" fill-rule="evenodd"/>
	</g>
	<g filter="url(#filter_5504_29091_dd)">
		<path d="M3 9.5L8.5 9.5C9.32 9.5 10 10.17 10 11C10 11.82 9.32 12.5 8.5 12.5L3 12.5L3 9.5Z" fill="url(#paint_linear_5504_29091_0)" fill-opacity="1.000000" fill-rule="nonzero"/>
	</g>
	<g filter="url(#filter_5504_29092_dd)">
		<path d="M3 15L10.5 15C11.32 15 12 15.67 12 16.5C12 17.32 11.32 18 10.5 18L3 18L3 15Z" fill="url(#paint_linear_5504_29092_0)" fill-opacity="1.000000" fill-rule="evenodd"/>
	</g>
</svg>
