<svg width="46.000000" height="46.000000" viewBox="0 0 46 46" fill="none" xmlns="http://www.w3.org/2000/svg" xmlns:xlink="http://www.w3.org/1999/xlink">
	<desc>
			Created with Pixso.
	</desc>
	<defs>
		<filter id="filter_5504_28898_dd" x="2.000000" y="5.000000" width="40.998047" height="32.224609" filterUnits="userSpaceOnUse" color-interpolation-filters="sRGB">
			<feFlood flood-opacity="0" result="BackgroundImageFix"/>
			<feBlend mode="normal" in="SourceGraphic" in2="BackgroundImageFix" result="shape"/>
			<feColorMatrix in="SourceAlpha" type="matrix" values="0 0 0 0 0 0 0 0 0 0 0 0 0 0 0 0 0 0 127 0" result="hardAlpha"/>
			<feOffset dx="1" dy="1"/>
			<feGaussianBlur stdDeviation="0.666667"/>
			<feComposite in2="hardAlpha" operator="arithmetic" k2="-1" k3="1"/>
			<feColorMatrix type="matrix" values="0 0 0 0 0.53333 0 0 0 0 0.64706 0 0 0 0 0.74902 0 0 0 0.6 0"/>
			<feBlend mode="normal" in2="shape" result="effect_innerShadow_1"/>
			<feColorMatrix in="SourceAlpha" type="matrix" values="0 0 0 0 0 0 0 0 0 0 0 0 0 0 0 0 0 0 127 0" result="hardAlpha"/>
			<feOffset dx="-1" dy="-2"/>
			<feGaussianBlur stdDeviation="0.666667"/>
			<feComposite in2="hardAlpha" operator="arithmetic" k2="-1" k3="1"/>
			<feColorMatrix type="matrix" values="0 0 0 0 0.53333 0 0 0 0 0.64706 0 0 0 0 0.74902 0 0 0 0.3 0"/>
			<feBlend mode="normal" in2="effect_innerShadow_1" result="effect_innerShadow_2"/>
			<feColorMatrix in="SourceAlpha" type="matrix" values="0 0 0 0 0 0 0 0 0 0 0 0 0 0 0 0 0 0 127 0" result="hardAlpha"/>
			<feOffset dx="-1" dy="-2"/>
			<feGaussianBlur stdDeviation="1"/>
			<feComposite in2="hardAlpha" operator="arithmetic" k2="-1" k3="1"/>
			<feColorMatrix type="matrix" values="0 0 0 0 1 0 0 0 0 1 0 0 0 0 1 0 0 0 0.4 0"/>
			<feBlend mode="normal" in2="effect_innerShadow_2" result="effect_innerShadow_3"/>
			<feColorMatrix in="SourceAlpha" type="matrix" values="0 0 0 0 0 0 0 0 0 0 0 0 0 0 0 0 0 0 127 0" result="hardAlpha"/>
			<feOffset dx="1" dy="1"/>
			<feGaussianBlur stdDeviation="0.666667"/>
			<feComposite in2="hardAlpha" operator="arithmetic" k2="-1" k3="1"/>
			<feColorMatrix type="matrix" values="0 0 0 0 0.53333 0 0 0 0 0.64706 0 0 0 0 0.74902 0 0 0 0.6 0"/>
			<feBlend mode="normal" in2="effect_innerShadow_3" result="effect_innerShadow_4"/>
			<feColorMatrix in="SourceAlpha" type="matrix" values="0 0 0 0 0 0 0 0 0 0 0 0 0 0 0 0 0 0 127 0" result="hardAlpha"/>
			<feOffset dx="-1" dy="-2"/>
			<feGaussianBlur stdDeviation="0.666667"/>
			<feComposite in2="hardAlpha" operator="arithmetic" k2="-1" k3="1"/>
			<feColorMatrix type="matrix" values="0 0 0 0 0.53333 0 0 0 0 0.64706 0 0 0 0 0.74902 0 0 0 0.3 0"/>
			<feBlend mode="normal" in2="effect_innerShadow_4" result="effect_innerShadow_5"/>
			<feColorMatrix in="SourceAlpha" type="matrix" values="0 0 0 0 0 0 0 0 0 0 0 0 0 0 0 0 0 0 127 0" result="hardAlpha"/>
			<feOffset dx="-1" dy="-2"/>
			<feGaussianBlur stdDeviation="1"/>
			<feComposite in2="hardAlpha" operator="arithmetic" k2="-1" k3="1"/>
			<feColorMatrix type="matrix" values="0 0 0 0 1 0 0 0 0 1 0 0 0 0 1 0 0 0 0.4 0"/>
			<feBlend mode="normal" in2="effect_innerShadow_5" result="effect_innerShadow_6"/>
		</filter>
		<filter id="filter_5504_28899_dd" x="17.000000" y="19.000000" width="23.062500" height="23.062500" filterUnits="userSpaceOnUse" color-interpolation-filters="sRGB">
			<feFlood flood-opacity="0" result="BackgroundImageFix"/>
			<feBlend mode="normal" in="SourceGraphic" in2="BackgroundImageFix" result="shape"/>
			<feColorMatrix in="SourceAlpha" type="matrix" values="0 0 0 0 0 0 0 0 0 0 0 0 0 0 0 0 0 0 127 0" result="hardAlpha"/>
			<feOffset dx="1.35294" dy="1.35294"/>
			<feGaussianBlur stdDeviation="0.45098"/>
			<feComposite in2="hardAlpha" operator="arithmetic" k2="-1" k3="1"/>
			<feColorMatrix type="matrix" values="0 0 0 0 0 0 0 0 0 0.36863 0 0 0 0 0.74118 0 0 0 0.5 0"/>
			<feBlend mode="normal" in2="shape" result="effect_innerShadow_1"/>
		</filter>
		<linearGradient x1="18.087069" y1="18.999994" x2="39.215679" y2="42.062492" id="paint_linear_5504_28899_0" gradientUnits="userSpaceOnUse">
			<stop stop-color="#0050EC"/>
			<stop offset="1.000000" stop-color="#39C7EC"/>
		</linearGradient>
	</defs>
	<g filter="url(#filter_5504_28898_dd)">
		<path d="M22.5 5C29.71 5 33.81 9.92 34.4 15.88L34.58 15.88C39.58 15.88 43.33 20.4 42.97 25.25C41 37 29 41 16.79 33.18L10.41 33.18C5.76 33.18 2 29.31 2 24.53C2 19.75 5.76 15.88 10.41 15.88L10.59 15.88C11.19 9.88 15.28 5 22.5 5Z" fill="#121212" fill-opacity="1.000000" fill-rule="nonzero"/>
		<path d="M22.5 5C29.71 5 33.81 9.92 34.4 15.88L34.58 15.88C39.58 15.88 43.33 20.4 42.97 25.25C41 37 29 41 16.79 33.18L10.41 33.18C5.76 33.18 2 29.31 2 24.53C2 19.75 5.76 15.88 10.41 15.88L10.59 15.88C11.19 9.88 15.28 5 22.5 5Z" fill="#D0E2F3" fill-opacity="1.000000" fill-rule="nonzero"/>
	</g>
	<g filter="url(#filter_5504_28899_dd)">
		<path d="M28.53 19C31.58 19 34.52 20.21 36.68 22.37C38.84 24.53 40.06 27.47 40.06 30.53C40.06 33.58 38.84 36.52 36.68 38.68C34.52 40.84 31.58 42.06 28.53 42.06C25.47 42.06 22.53 40.84 20.37 38.68C18.21 36.52 17 33.58 17 30.53C17 27.47 18.21 24.53 20.37 22.37C22.53 20.21 25.47 19 28.53 19ZM32.63 31.55C32.9 31.82 33.27 31.97 33.65 31.97C34.03 31.97 34.4 31.82 34.67 31.55C34.94 31.28 35.09 30.91 35.09 30.53C35.09 30.14 34.94 29.78 34.67 29.51L29.55 24.38C29.41 24.25 29.25 24.14 29.08 24.07C28.9 24 28.72 23.96 28.53 23.96C28.34 23.96 28.15 24 27.97 24.07C27.8 24.14 27.64 24.25 27.51 24.38L22.38 29.51C22.25 29.64 22.14 29.8 22.07 29.97C22 30.15 21.96 30.34 21.96 30.53C21.96 30.72 22 30.9 22.07 31.08C22.14 31.25 22.25 31.41 22.38 31.55C22.51 31.68 22.67 31.79 22.85 31.86C23.02 31.93 23.21 31.97 23.4 31.97C23.59 31.97 23.78 31.93 23.95 31.86C24.13 31.79 24.29 31.68 24.42 31.55L27.25 28.72L27.25 35.65C27.25 35.99 27.38 36.32 27.62 36.56C27.86 36.8 28.19 36.93 28.53 36.93C28.87 36.93 29.19 36.8 29.43 36.56C29.67 36.32 29.81 35.99 29.81 35.65L29.81 28.72L32.63 31.55Z" fill="#121212" fill-opacity="1.000000" fill-rule="nonzero"/>
		<path d="M28.53 19C31.58 19 34.52 20.21 36.68 22.37C38.84 24.53 40.06 27.47 40.06 30.53C40.06 33.58 38.84 36.52 36.68 38.68C34.52 40.84 31.58 42.06 28.53 42.06C25.47 42.06 22.53 40.84 20.37 38.68C18.21 36.52 17 33.58 17 30.53C17 27.47 18.21 24.53 20.37 22.37C22.53 20.21 25.47 19 28.53 19ZM32.63 31.55C32.9 31.82 33.27 31.97 33.65 31.97C34.03 31.97 34.4 31.82 34.67 31.55C34.94 31.28 35.09 30.91 35.09 30.53C35.09 30.14 34.94 29.78 34.67 29.51L29.55 24.38C29.41 24.25 29.25 24.14 29.08 24.07C28.9 24 28.72 23.96 28.53 23.96C28.34 23.96 28.15 24 27.97 24.07C27.8 24.14 27.64 24.25 27.51 24.38L22.38 29.51C22.25 29.64 22.14 29.8 22.07 29.97C22 30.15 21.96 30.34 21.96 30.53C21.96 30.72 22 30.9 22.07 31.08C22.14 31.25 22.25 31.41 22.38 31.55C22.51 31.68 22.67 31.79 22.85 31.86C23.02 31.93 23.21 31.97 23.4 31.97C23.59 31.97 23.78 31.93 23.95 31.86C24.13 31.79 24.29 31.68 24.42 31.55L27.25 28.72L27.25 35.65C27.25 35.99 27.38 36.32 27.62 36.56C27.86 36.8 28.19 36.93 28.53 36.93C28.87 36.93 29.19 36.8 29.43 36.56C29.67 36.32 29.81 35.99 29.81 35.65L29.81 28.72L32.63 31.55Z" fill="url(#paint_linear_5504_28899_0)" fill-opacity="1.000000" fill-rule="nonzero"/>
	</g>
</svg>
