<svg width="46.000000" height="46.000000" viewBox="0 0 46 46" fill="none" xmlns="http://www.w3.org/2000/svg" xmlns:xlink="http://www.w3.org/1999/xlink">
	<desc>
			Created with Pixso.
	</desc>
	<defs>
		<filter id="filter_5504_28895_dd" x="2.875000" y="7.667969" width="40.250000" height="30.666016" filterUnits="userSpaceOnUse" color-interpolation-filters="sRGB">
			<feFlood flood-opacity="0" result="BackgroundImageFix"/>
			<feBlend mode="normal" in="SourceGraphic" in2="BackgroundImageFix" result="shape"/>
			<feColorMatrix in="SourceAlpha" type="matrix" values="0 0 0 0 0 0 0 0 0 0 0 0 0 0 0 0 0 0 127 0" result="hardAlpha"/>
			<feOffset dx="1" dy="1"/>
			<feGaussianBlur stdDeviation="0.666667"/>
			<feComposite in2="hardAlpha" operator="arithmetic" k2="-1" k3="1"/>
			<feColorMatrix type="matrix" values="0 0 0 0 0.53333 0 0 0 0 0.64706 0 0 0 0 0.74902 0 0 0 0.6 0"/>
			<feBlend mode="normal" in2="shape" result="effect_innerShadow_1"/>
			<feColorMatrix in="SourceAlpha" type="matrix" values="0 0 0 0 0 0 0 0 0 0 0 0 0 0 0 0 0 0 127 0" result="hardAlpha"/>
			<feOffset dx="-1" dy="-2"/>
			<feGaussianBlur stdDeviation="0.666667"/>
			<feComposite in2="hardAlpha" operator="arithmetic" k2="-1" k3="1"/>
			<feColorMatrix type="matrix" values="0 0 0 0 0.53333 0 0 0 0 0.64706 0 0 0 0 0.74902 0 0 0 0.3 0"/>
			<feBlend mode="normal" in2="effect_innerShadow_1" result="effect_innerShadow_2"/>
			<feColorMatrix in="SourceAlpha" type="matrix" values="0 0 0 0 0 0 0 0 0 0 0 0 0 0 0 0 0 0 127 0" result="hardAlpha"/>
			<feOffset dx="-1" dy="-2"/>
			<feGaussianBlur stdDeviation="1"/>
			<feComposite in2="hardAlpha" operator="arithmetic" k2="-1" k3="1"/>
			<feColorMatrix type="matrix" values="0 0 0 0 1 0 0 0 0 1 0 0 0 0 1 0 0 0 0.4 0"/>
			<feBlend mode="normal" in2="effect_innerShadow_2" result="effect_innerShadow_3"/>
		</filter>
		<filter id="filter_5504_28896_dd" x="15.333984" y="24.917969" width="23.000000" height="17.250000" filterUnits="userSpaceOnUse" color-interpolation-filters="sRGB">
			<feFlood flood-opacity="0" result="BackgroundImageFix"/>
			<feBlend mode="normal" in="SourceGraphic" in2="BackgroundImageFix" result="shape"/>
			<feColorMatrix in="SourceAlpha" type="matrix" values="0 0 0 0 0 0 0 0 0 0 0 0 0 0 0 0 0 0 127 0" result="hardAlpha"/>
			<feOffset dx="1.35294" dy="1.35294"/>
			<feGaussianBlur stdDeviation="0.45098"/>
			<feComposite in2="hardAlpha" operator="arithmetic" k2="-1" k3="1"/>
			<feColorMatrix type="matrix" values="0 0 0 0 0 0 0 0 0 0.36863 0 0 0 0 0.74118 0 0 0 0.5 0"/>
			<feBlend mode="normal" in2="shape" result="effect_innerShadow_1"/>
		</filter>
	</defs>
	<g filter="url(#filter_5504_28895_dd)">
		<path d="M32.48 17.41C32.53 17.41 32.59 17.42 32.65 17.42C38.71 17.66 43.12 21.72 43.12 27.79C43.12 33.85 38.71 37.91 32.65 38.16C30.1 38.26 26.92 38.33 23 38.33C19.07 38.33 15.89 38.26 13.34 38.16C7.28 37.91 2.87 33.85 2.87 27.79C2.87 23.06 5.56 19.55 9.61 18.11C10.04 12.06 14.15 7.71 20.39 7.66C20.62 7.66 20.84 7.66 21.08 7.66C21.31 7.66 21.54 7.66 21.77 7.66C27.76 7.71 31.79 11.73 32.48 17.41Z" fill="#ACB4C9" fill-opacity="1.000000" fill-rule="nonzero"/>
	</g>
	<g filter="url(#filter_5504_28896_dd)">
		<path d="M32.27 30.75C32.38 30.76 32.48 30.76 32.59 30.77C35.9 30.9 38.33 33.1 38.33 36.41C38.33 39.73 35.9 41.92 32.59 42.06C31.09 42.12 29.2 42.16 26.83 42.16C24.46 42.16 22.57 42.12 21.07 42.06C17.76 41.92 15.33 39.73 15.33 36.41C15.33 33.77 16.87 31.84 19.17 31.1C19.33 27.53 21.7 24.94 25.34 24.91C25.47 24.91 25.6 24.91 25.73 24.91C25.87 24.91 26 24.91 26.13 24.91C29.65 24.94 31.98 27.36 32.27 30.75Z" fill="#576684" fill-opacity="1.000000" fill-rule="nonzero"/>
	</g>
	<path d="M11 18.79C11 19.23 10.62 19.58 10.17 19.58C9.71 19.58 9.33 19.23 9.33 18.79C9.33 18.35 9.71 18 10.17 18C10.62 18 11 18.35 11 18.79ZM14.58 20.86L16.21 20.86L16.21 21.85L14.58 21.85L14.58 26.31C14.58 27.3 15.08 27.46 15.59 27.46C15.85 27.46 16.01 27.42 16.11 27.4L16.35 28.45C16.19 28.52 15.91 28.59 15.48 28.59C14.48 28.59 13.41 27.96 13.41 26.63L13.41 21.85L12.25 21.85L12.25 20.86L13.41 20.86L13.41 19.03L14.58 19.03L14.58 20.86ZM24.15 26.72C23.79 27.88 22.66 28.66 21.1 28.66C18.9 28.66 17.54 27.08 17.54 24.74C17.54 22.39 18.92 20.76 20.98 20.76C22.57 20.76 24.26 21.73 24.26 24.58L24.26 25.07L18.72 25.07C18.78 26.71 19.73 27.6 21.1 27.6C22.02 27.6 22.71 27.2 23.01 26.41L24.15 26.72ZM27.23 28.5L26.05 28.5L26.05 20.86L27.19 20.86L27.19 22.05L27.29 22.05C27.61 21.24 28.34 20.76 29.34 20.76C30.34 20.76 31.01 21.24 31.38 22.05L31.46 22.05C31.86 21.26 32.66 20.76 33.75 20.76C35.11 20.76 36.08 21.59 36.08 23.39L36.08 28.5L34.9 28.5L34.9 23.39C34.9 22.26 34.19 21.81 33.35 21.81C32.28 21.81 31.66 22.54 31.66 23.52L31.66 28.5L30.47 28.5L30.47 23.27C30.47 22.39 29.85 21.81 28.96 21.81C28.04 21.81 27.23 22.6 27.23 23.72L27.23 28.5ZM10.74 28.5L9.57 28.5L9.57 20.86L10.74 20.86L10.74 28.5ZM20.98 21.81C19.64 21.81 18.8 22.87 18.72 24.06L23.07 24.06C23.07 22.77 22.26 21.81 20.98 21.81Z" fill="#000000" fill-opacity="1.000000" fill-rule="evenodd"/>
</svg>
