<svg width="46.000000" height="46.000000" viewBox="0 0 46 46" fill="none" xmlns="http://www.w3.org/2000/svg" xmlns:xlink="http://www.w3.org/1999/xlink">
	<desc>
			Created with Pixso.
	</desc>
	<defs>
		<filter id="filter_5504_28982_dd" x="3.833984" y="9.585938" width="32.583984" height="32.583984" filterUnits="userSpaceOnUse" color-interpolation-filters="sRGB">
			<feFlood flood-opacity="0" result="BackgroundImageFix"/>
			<feBlend mode="normal" in="SourceGraphic" in2="BackgroundImageFix" result="shape"/>
			<feColorMatrix in="SourceAlpha" type="matrix" values="0 0 0 0 0 0 0 0 0 0 0 0 0 0 0 0 0 0 127 0" result="hardAlpha"/>
			<feOffset dx="1" dy="1"/>
			<feGaussianBlur stdDeviation="0.666667"/>
			<feComposite in2="hardAlpha" operator="arithmetic" k2="-1" k3="1"/>
			<feColorMatrix type="matrix" values="0 0 0 0 0.53333 0 0 0 0 0.64706 0 0 0 0 0.74902 0 0 0 0.6 0"/>
			<feBlend mode="normal" in2="shape" result="effect_innerShadow_1"/>
			<feColorMatrix in="SourceAlpha" type="matrix" values="0 0 0 0 0 0 0 0 0 0 0 0 0 0 0 0 0 0 127 0" result="hardAlpha"/>
			<feOffset dx="-1" dy="-2"/>
			<feGaussianBlur stdDeviation="0.666667"/>
			<feComposite in2="hardAlpha" operator="arithmetic" k2="-1" k3="1"/>
			<feColorMatrix type="matrix" values="0 0 0 0 0.53333 0 0 0 0 0.64706 0 0 0 0 0.74902 0 0 0 0.3 0"/>
			<feBlend mode="normal" in2="effect_innerShadow_1" result="effect_innerShadow_2"/>
			<feColorMatrix in="SourceAlpha" type="matrix" values="0 0 0 0 0 0 0 0 0 0 0 0 0 0 0 0 0 0 127 0" result="hardAlpha"/>
			<feOffset dx="-1" dy="-2"/>
			<feGaussianBlur stdDeviation="1"/>
			<feComposite in2="hardAlpha" operator="arithmetic" k2="-1" k3="1"/>
			<feColorMatrix type="matrix" values="0 0 0 0 1 0 0 0 0 1 0 0 0 0 1 0 0 0 0.4 0"/>
			<feBlend mode="normal" in2="effect_innerShadow_2" result="effect_innerShadow_3"/>
		</filter>
		<filter id="filter_5504_28983_dd" x="21.083984" y="3.835938" width="21.083984" height="21.083984" filterUnits="userSpaceOnUse" color-interpolation-filters="sRGB">
			<feFlood flood-opacity="0" result="BackgroundImageFix"/>
			<feBlend mode="normal" in="SourceGraphic" in2="BackgroundImageFix" result="shape"/>
			<feColorMatrix in="SourceAlpha" type="matrix" values="0 0 0 0 0 0 0 0 0 0 0 0 0 0 0 0 0 0 127 0" result="hardAlpha"/>
			<feOffset dx="1" dy="1"/>
			<feGaussianBlur stdDeviation="0.666667"/>
			<feComposite in2="hardAlpha" operator="arithmetic" k2="-1" k3="1"/>
			<feColorMatrix type="matrix" values="0 0 0 0 0.53333 0 0 0 0 0.64706 0 0 0 0 0.74902 0 0 0 0.6 0"/>
			<feBlend mode="normal" in2="shape" result="effect_innerShadow_1"/>
			<feColorMatrix in="SourceAlpha" type="matrix" values="0 0 0 0 0 0 0 0 0 0 0 0 0 0 0 0 0 0 127 0" result="hardAlpha"/>
			<feOffset dx="-1" dy="-2"/>
			<feGaussianBlur stdDeviation="0.666667"/>
			<feComposite in2="hardAlpha" operator="arithmetic" k2="-1" k3="1"/>
			<feColorMatrix type="matrix" values="0 0 0 0 0.53333 0 0 0 0 0.64706 0 0 0 0 0.74902 0 0 0 0.3 0"/>
			<feBlend mode="normal" in2="effect_innerShadow_1" result="effect_innerShadow_2"/>
			<feColorMatrix in="SourceAlpha" type="matrix" values="0 0 0 0 0 0 0 0 0 0 0 0 0 0 0 0 0 0 127 0" result="hardAlpha"/>
			<feOffset dx="-1" dy="-2"/>
			<feGaussianBlur stdDeviation="1"/>
			<feComposite in2="hardAlpha" operator="arithmetic" k2="-1" k3="1"/>
			<feColorMatrix type="matrix" values="0 0 0 0 1 0 0 0 0 1 0 0 0 0 1 0 0 0 0.4 0"/>
			<feBlend mode="normal" in2="effect_innerShadow_2" result="effect_innerShadow_3"/>
		</filter>
	</defs>
	<g filter="url(#filter_5504_28982_dd)">
		<path d="M7.18 24.82C5.53 24.73 4.26 23.65 4.06 22.01C3.93 20.9 3.83 19.36 3.83 17.25C3.83 15.14 3.93 13.59 4.06 12.49C4.26 10.84 5.53 9.77 7.18 9.68C8.21 9.62 9.61 9.58 11.5 9.58C13.38 9.58 14.78 9.62 15.81 9.68C17.46 9.77 18.74 10.84 18.93 12.49C19.06 13.59 19.16 15.14 19.16 17.25C19.16 19.36 19.06 20.9 18.93 22.01C18.74 23.65 17.46 24.73 15.81 24.82C14.78 24.87 13.38 24.91 11.5 24.91C9.61 24.91 8.21 24.87 7.18 24.82ZM6.73 27.07C5.09 27.26 4.02 28.53 3.93 30.18C3.87 31.21 3.83 32.61 3.83 34.5C3.83 36.38 3.87 37.78 3.93 38.81C4.02 40.46 5.09 41.74 6.73 41.93C7.84 42.06 9.39 42.16 11.5 42.16C13.6 42.16 15.15 42.06 16.26 41.93C17.9 41.74 18.98 40.46 19.06 38.81C19.12 37.78 19.16 36.38 19.16 34.5C19.16 32.61 19.12 31.21 19.06 30.18C18.98 28.53 17.9 27.26 16.26 27.07C15.15 26.93 13.6 26.83 11.5 26.83C9.39 26.83 7.84 26.93 6.73 27.07ZM24.43 42.07C22.78 41.98 21.51 40.9 21.31 39.26C21.18 38.15 21.08 36.61 21.08 34.5C21.08 32.39 21.18 30.84 21.31 29.74C21.51 28.09 22.78 27.02 24.43 26.93C25.46 26.87 26.86 26.83 28.75 26.83C30.63 26.83 32.03 26.87 33.06 26.93C34.71 27.02 35.99 28.09 36.18 29.74C36.31 30.84 36.41 32.39 36.41 34.5C36.41 36.61 36.31 38.15 36.18 39.26C35.99 40.9 34.71 41.98 33.06 42.07C32.03 42.12 30.63 42.16 28.75 42.16C26.86 42.16 25.46 42.12 24.43 42.07Z" fill="#ACB4C9" fill-opacity="1.000000" fill-rule="evenodd"/>
	</g>
	<g filter="url(#filter_5504_28983_dd)">
		<path d="M24.11 4.28C25.66 4.05 28.05 3.83 31.62 3.83C35.19 3.83 37.58 4.05 39.13 4.28C40.77 4.53 41.85 5.82 41.97 7.47C42.07 8.93 42.16 11.13 42.16 14.37C42.16 17.62 42.07 19.82 41.97 21.28C41.85 22.93 40.77 24.22 39.13 24.46C37.58 24.7 35.19 24.91 31.62 24.91C28.05 24.91 25.66 24.7 24.11 24.46C22.47 24.22 21.39 22.93 21.27 21.28C21.17 19.82 21.08 17.62 21.08 14.37C21.08 11.13 21.17 8.93 21.27 7.47C21.39 5.82 22.47 4.53 24.11 4.28Z" fill="#D0E2F3" fill-opacity="1.000000" fill-rule="nonzero"/>
	</g>
</svg>
