<svg width="46.000000" height="46.000000" viewBox="0 0 46 46" fill="none" xmlns="http://www.w3.org/2000/svg" xmlns:xlink="http://www.w3.org/1999/xlink">
	<desc>
			Created with Pixso.
	</desc>
	<defs>
		<filter id="filter_5504_28937_dd" x="3.832031" y="3.835938" width="38.333984" height="38.333984" filterUnits="userSpaceOnUse" color-interpolation-filters="sRGB">
			<feFlood flood-opacity="0" result="BackgroundImageFix"/>
			<feBlend mode="normal" in="SourceGraphic" in2="BackgroundImageFix" result="shape"/>
			<feColorMatrix in="SourceAlpha" type="matrix" values="0 0 0 0 0 0 0 0 0 0 0 0 0 0 0 0 0 0 127 0" result="hardAlpha"/>
			<feOffset dx="1" dy="1"/>
			<feGaussianBlur stdDeviation="0.666667"/>
			<feComposite in2="hardAlpha" operator="arithmetic" k2="-1" k3="1"/>
			<feColorMatrix type="matrix" values="0 0 0 0 0.53333 0 0 0 0 0.64706 0 0 0 0 0.74902 0 0 0 0.6 0"/>
			<feBlend mode="normal" in2="shape" result="effect_innerShadow_1"/>
			<feColorMatrix in="SourceAlpha" type="matrix" values="0 0 0 0 0 0 0 0 0 0 0 0 0 0 0 0 0 0 127 0" result="hardAlpha"/>
			<feOffset dx="-1" dy="-2"/>
			<feGaussianBlur stdDeviation="0.666667"/>
			<feComposite in2="hardAlpha" operator="arithmetic" k2="-1" k3="1"/>
			<feColorMatrix type="matrix" values="0 0 0 0 0.53333 0 0 0 0 0.64706 0 0 0 0 0.74902 0 0 0 0.3 0"/>
			<feBlend mode="normal" in2="effect_innerShadow_1" result="effect_innerShadow_2"/>
			<feColorMatrix in="SourceAlpha" type="matrix" values="0 0 0 0 0 0 0 0 0 0 0 0 0 0 0 0 0 0 127 0" result="hardAlpha"/>
			<feOffset dx="-1" dy="-2"/>
			<feGaussianBlur stdDeviation="1"/>
			<feComposite in2="hardAlpha" operator="arithmetic" k2="-1" k3="1"/>
			<feColorMatrix type="matrix" values="0 0 0 0 1 0 0 0 0 1 0 0 0 0 1 0 0 0 0.4 0"/>
			<feBlend mode="normal" in2="effect_innerShadow_2" result="effect_innerShadow_3"/>
		</filter>
		<filter id="filter_5504_28938_dd" x="10.539062" y="9.583984" width="24.916016" height="25.875000" filterUnits="userSpaceOnUse" color-interpolation-filters="sRGB">
			<feFlood flood-opacity="0" result="BackgroundImageFix"/>
			<feBlend mode="normal" in="SourceGraphic" in2="BackgroundImageFix" result="shape"/>
			<feColorMatrix in="SourceAlpha" type="matrix" values="0 0 0 0 0 0 0 0 0 0 0 0 0 0 0 0 0 0 127 0" result="hardAlpha"/>
			<feOffset dx="1.35294" dy="1.35294"/>
			<feGaussianBlur stdDeviation="0.45098"/>
			<feComposite in2="hardAlpha" operator="arithmetic" k2="-1" k3="1"/>
			<feColorMatrix type="matrix" values="0 0 0 0 0 0 0 0 0 0.36863 0 0 0 0 0.74118 0 0 0 0.5 0"/>
			<feBlend mode="normal" in2="shape" result="effect_innerShadow_1"/>
		</filter>
		<linearGradient x1="11.713524" y1="9.583981" x2="34.540821" y2="35.458992" id="paint_linear_5504_28938_0" gradientUnits="userSpaceOnUse">
			<stop stop-color="#0050EC"/>
			<stop offset="1.000000" stop-color="#39C7EC"/>
		</linearGradient>
	</defs>
	<g filter="url(#filter_5504_28937_dd)">
		<path d="M4.45 8.21C4.64 6.64 5.59 5.33 7.15 4.99C9.57 4.45 14.26 3.83 22.99 3.83C31.73 3.83 36.42 4.45 38.84 4.99C40.39 5.33 41.35 6.64 41.53 8.21C41.81 10.6 42.16 14.53 42.16 19.16C42.16 27.82 37.59 35.91 29.9 39.87C27.33 41.19 24.82 42.16 22.99 42.16C21.16 42.16 18.66 41.19 16.09 39.87C8.39 35.91 3.83 27.82 3.83 19.16C3.83 14.53 4.18 10.6 4.45 8.21Z" fill="#D0E2F3" fill-opacity="1.000000" fill-rule="nonzero"/>
	</g>
	<g filter="url(#filter_5504_28938_dd)">
		<path d="M13.5 10.2C11.96 10.47 11.01 11.75 10.86 13.3C10.7 14.93 10.53 17.26 10.53 19.93C10.53 25.02 13.01 29.71 17.15 32.68C19.26 34.19 21.48 35.45 22.99 35.45C24.5 35.45 26.72 34.19 28.84 32.68C32.98 29.71 35.45 25.02 35.45 19.93C35.45 17.26 35.28 14.93 35.12 13.3C34.97 11.75 34.03 10.47 32.49 10.2C30.75 9.88 27.82 9.58 22.99 9.58C18.16 9.58 15.24 9.88 13.5 10.2ZM26.83 19.16C26.83 20.58 26.05 21.83 24.9 22.49L25.58 25.87C25.75 26.72 25.31 27.56 24.46 27.68C24.06 27.75 23.57 27.79 22.99 27.79C22.42 27.79 21.93 27.75 21.53 27.68C20.67 27.56 20.24 26.72 20.41 25.87L21.08 22.49C19.93 21.83 19.16 20.58 19.16 19.16C19.16 17.05 20.88 15.33 22.99 15.33C25.11 15.33 26.83 17.05 26.83 19.16Z" fill="url(#paint_linear_5504_28938_0)" fill-opacity="1.000000" fill-rule="evenodd"/>
	</g>
</svg>
