<svg width="34.000000" height="34.000000" viewBox="0 0 34 34" fill="none" xmlns="http://www.w3.org/2000/svg" xmlns:xlink="http://www.w3.org/1999/xlink">
	<desc>
			Created with Pixso.
	</desc>
	<defs>
		<filter id="filter_5504_29086_dd" x="3.000000" y="2.000000" width="29.000000" height="29.000000" filterUnits="userSpaceOnUse" color-interpolation-filters="sRGB">
			<feFlood flood-opacity="0" result="BackgroundImageFix"/>
			<feBlend mode="normal" in="SourceGraphic" in2="BackgroundImageFix" result="shape"/>
			<feColorMatrix in="SourceAlpha" type="matrix" values="0 0 0 0 0 0 0 0 0 0 0 0 0 0 0 0 0 0 127 0" result="hardAlpha"/>
			<feOffset dx="1" dy="1"/>
			<feGaussianBlur stdDeviation="0.666667"/>
			<feComposite in2="hardAlpha" operator="arithmetic" k2="-1" k3="1"/>
			<feColorMatrix type="matrix" values="0 0 0 0 0.53333 0 0 0 0 0.64706 0 0 0 0 0.74902 0 0 0 0.6 0"/>
			<feBlend mode="normal" in2="shape" result="effect_innerShadow_1"/>
			<feColorMatrix in="SourceAlpha" type="matrix" values="0 0 0 0 0 0 0 0 0 0 0 0 0 0 0 0 0 0 127 0" result="hardAlpha"/>
			<feOffset dx="-1" dy="-2"/>
			<feGaussianBlur stdDeviation="0.666667"/>
			<feComposite in2="hardAlpha" operator="arithmetic" k2="-1" k3="1"/>
			<feColorMatrix type="matrix" values="0 0 0 0 0.53333 0 0 0 0 0.64706 0 0 0 0 0.74902 0 0 0 0.3 0"/>
			<feBlend mode="normal" in2="effect_innerShadow_1" result="effect_innerShadow_2"/>
			<feColorMatrix in="SourceAlpha" type="matrix" values="0 0 0 0 0 0 0 0 0 0 0 0 0 0 0 0 0 0 127 0" result="hardAlpha"/>
			<feOffset dx="-1" dy="-2"/>
			<feGaussianBlur stdDeviation="1"/>
			<feComposite in2="hardAlpha" operator="arithmetic" k2="-1" k3="1"/>
			<feColorMatrix type="matrix" values="0 0 0 0 1 0 0 0 0 1 0 0 0 0 1 0 0 0 0.4 0"/>
			<feBlend mode="normal" in2="effect_innerShadow_2" result="effect_innerShadow_3"/>
		</filter>
		<filter id="filter_5504_29087_dd" x="18.566406" y="6.462891" width="5.636719" height="5.638672" filterUnits="userSpaceOnUse" color-interpolation-filters="sRGB">
			<feFlood flood-opacity="0" result="BackgroundImageFix"/>
			<feBlend mode="normal" in="SourceGraphic" in2="BackgroundImageFix" result="shape"/>
			<feColorMatrix in="SourceAlpha" type="matrix" values="0 0 0 0 0 0 0 0 0 0 0 0 0 0 0 0 0 0 127 0" result="hardAlpha"/>
			<feOffset dx="1.35294" dy="1.35294"/>
			<feGaussianBlur stdDeviation="1.35294"/>
			<feComposite in2="hardAlpha" operator="arithmetic" k2="-1" k3="1"/>
			<feColorMatrix type="matrix" values="0 0 0 0 0 0 0 0 0 0.36863 0 0 0 0 0.74118 0 0 0 0.4 0"/>
			<feBlend mode="normal" in2="shape" result="effect_innerShadow_1"/>
		</filter>
		<filter id="filter_5504_29088_dd" x="9.509766" y="19.400391" width="22.490234" height="3.867188" filterUnits="userSpaceOnUse" color-interpolation-filters="sRGB">
			<feFlood flood-opacity="0" result="BackgroundImageFix"/>
			<feBlend mode="normal" in="SourceGraphic" in2="BackgroundImageFix" result="shape"/>
			<feColorMatrix in="SourceAlpha" type="matrix" values="0 0 0 0 0 0 0 0 0 0 0 0 0 0 0 0 0 0 127 0" result="hardAlpha"/>
			<feOffset dx="1.35294" dy="1.35294"/>
			<feGaussianBlur stdDeviation="1.35294"/>
			<feComposite in2="hardAlpha" operator="arithmetic" k2="-1" k3="1"/>
			<feColorMatrix type="matrix" values="0 0 0 0 0 0 0 0 0 0.36863 0 0 0 0 0.74118 0 0 0 0.4 0"/>
			<feBlend mode="normal" in2="shape" result="effect_innerShadow_1"/>
		</filter>
		<linearGradient x1="18.576015" y1="7.525391" x2="23.128382" y2="12.494434" id="paint_linear_5504_29087_0" gradientUnits="userSpaceOnUse">
			<stop stop-color="#39C7EC"/>
			<stop offset="0.000100" stop-color="#39C7EC"/>
			<stop offset="1.000000" stop-color="#0050EC"/>
		</linearGradient>
		<linearGradient x1="10.569880" y1="19.400398" x2="31.174726" y2="23.267067" id="paint_linear_5504_29088_0" gradientUnits="userSpaceOnUse">
			<stop stop-color="#39C7EC"/>
			<stop offset="0.000100" stop-color="#39C7EC"/>
			<stop offset="1.000000" stop-color="#0050EC"/>
		</linearGradient>
	</defs>
	<g filter="url(#filter_5504_29086_dd)">
		<path d="M21.53 2C21.31 2.01 21.09 2.05 20.86 2.1L5.58 5.8C3.78 6.24 2.65 8.04 3.09 9.84L5.23 18.52C5.36 19.04 5.62 19.51 5.97 19.91C6.33 20.31 6.77 20.62 7.27 20.82L7.27 18.73C7.27 15.65 9.79 13.15 12.89 13.15L27.04 13.15L24.94 4.54C24.75 3.79 24.31 3.13 23.69 2.67C23.07 2.2 22.31 1.97 21.53 2ZM22.9 6.81L23.81 10.61L20.02 11.51L19.07 7.75L22.9 6.81ZM12.89 15.38C11.03 15.38 9.52 16.88 9.52 18.73L9.52 27.65C9.52 29.5 11.03 31 12.89 31L28.62 31C30.49 31 32 29.5 32 27.65L32 18.73C32 16.88 30.49 15.38 28.62 15.38L12.89 15.38ZM12.89 17.16L28.62 17.16C29.49 17.16 30.2 17.87 30.2 18.73L30.2 19.84L11.31 19.84L11.31 18.73C11.31 17.87 12.02 17.16 12.89 17.16ZM11.31 23.19L30.2 23.19L30.2 27.65C30.2 28.51 29.49 29.22 28.62 29.22L12.89 29.22C12.47 29.22 12.07 29.05 11.78 28.75C11.48 28.46 11.31 28.06 11.31 27.65L11.31 23.19Z" fill="#D0E2F3" fill-opacity="1.000000" fill-rule="nonzero"/>
	</g>
	<g filter="url(#filter_5504_29087_dd)">
		<rect x="18.341797" y="7.525391" rx="1.000000" width="4.969043" height="4.969043" transform="rotate(-15 18.341797 7.525391)" fill="url(#paint_linear_5504_29087_0)" fill-opacity="1.000000"/>
	</g>
	<g filter="url(#filter_5504_29088_dd)">
		<path d="M9.5 19.4L32 19.4L32 23.26L9.5 23.26L9.5 19.4Z" fill="url(#paint_linear_5504_29088_0)" fill-opacity="1.000000" fill-rule="nonzero"/>
	</g>
</svg>
