<svg width="46.000000" height="46.000000" viewBox="0 0 46 46" fill="none" xmlns="http://www.w3.org/2000/svg" xmlns:xlink="http://www.w3.org/1999/xlink">
	<desc>
			Created with Pixso.
	</desc>
	<defs>
		<filter id="filter_5504_28940_dd" x="1.914062" y="12.458984" width="42.166016" height="26.792969" filterUnits="userSpaceOnUse" color-interpolation-filters="sRGB">
			<feFlood flood-opacity="0" result="BackgroundImageFix"/>
			<feBlend mode="normal" in="SourceGraphic" in2="BackgroundImageFix" result="shape"/>
			<feColorMatrix in="SourceAlpha" type="matrix" values="0 0 0 0 0 0 0 0 0 0 0 0 0 0 0 0 0 0 127 0" result="hardAlpha"/>
			<feOffset dx="1.35294" dy="1.35294"/>
			<feGaussianBlur stdDeviation="0.45098"/>
			<feComposite in2="hardAlpha" operator="arithmetic" k2="-1" k3="1"/>
			<feColorMatrix type="matrix" values="0 0 0 0 0 0 0 0 0 0.36863 0 0 0 0 0.74118 0 0 0 0.5 0"/>
			<feBlend mode="normal" in2="shape" result="effect_innerShadow_1"/>
		</filter>
		<filter id="filter_5504_28941_dd" x="3.832031" y="9.585938" width="38.333984" height="26.625000" filterUnits="userSpaceOnUse" color-interpolation-filters="sRGB">
			<feFlood flood-opacity="0" result="BackgroundImageFix"/>
			<feBlend mode="normal" in="SourceGraphic" in2="BackgroundImageFix" result="shape"/>
			<feColorMatrix in="SourceAlpha" type="matrix" values="0 0 0 0 0 0 0 0 0 0 0 0 0 0 0 0 0 0 127 0" result="hardAlpha"/>
			<feOffset dx="1" dy="1"/>
			<feGaussianBlur stdDeviation="0.666667"/>
			<feComposite in2="hardAlpha" operator="arithmetic" k2="-1" k3="1"/>
			<feColorMatrix type="matrix" values="0 0 0 0 0.53333 0 0 0 0 0.64706 0 0 0 0 0.74902 0 0 0 0.6 0"/>
			<feBlend mode="normal" in2="shape" result="effect_innerShadow_1"/>
			<feColorMatrix in="SourceAlpha" type="matrix" values="0 0 0 0 0 0 0 0 0 0 0 0 0 0 0 0 0 0 127 0" result="hardAlpha"/>
			<feOffset dx="-1" dy="-2"/>
			<feGaussianBlur stdDeviation="0.666667"/>
			<feComposite in2="hardAlpha" operator="arithmetic" k2="-1" k3="1"/>
			<feColorMatrix type="matrix" values="0 0 0 0 0.53333 0 0 0 0 0.64706 0 0 0 0 0.74902 0 0 0 0.3 0"/>
			<feBlend mode="normal" in2="effect_innerShadow_1" result="effect_innerShadow_2"/>
			<feColorMatrix in="SourceAlpha" type="matrix" values="0 0 0 0 0 0 0 0 0 0 0 0 0 0 0 0 0 0 127 0" result="hardAlpha"/>
			<feOffset dx="-1" dy="-2"/>
			<feGaussianBlur stdDeviation="1"/>
			<feComposite in2="hardAlpha" operator="arithmetic" k2="-1" k3="1"/>
			<feColorMatrix type="matrix" values="0 0 0 0 1 0 0 0 0 1 0 0 0 0 1 0 0 0 0.4 0"/>
			<feBlend mode="normal" in2="effect_innerShadow_2" result="effect_innerShadow_3"/>
		</filter>
		<filter id="filter_5504_28943_dd" x="7.664062" y="17.250000" width="11.500000" height="11.525391" filterUnits="userSpaceOnUse" color-interpolation-filters="sRGB">
			<feFlood flood-opacity="0" result="BackgroundImageFix"/>
			<feBlend mode="normal" in="SourceGraphic" in2="BackgroundImageFix" result="shape"/>
			<feColorMatrix in="SourceAlpha" type="matrix" values="0 0 0 0 0 0 0 0 0 0 0 0 0 0 0 0 0 0 127 0" result="hardAlpha"/>
			<feOffset dx="1.35294" dy="1.35294"/>
			<feGaussianBlur stdDeviation="0.45098"/>
			<feComposite in2="hardAlpha" operator="arithmetic" k2="-1" k3="1"/>
			<feColorMatrix type="matrix" values="0 0 0 0 0 0 0 0 0 0.36863 0 0 0 0 0.74118 0 0 0 0.5 0"/>
			<feBlend mode="normal" in2="shape" result="effect_innerShadow_1"/>
		</filter>
		<filter id="filter_5504_28944_dd" x="26.832031" y="17.250000" width="11.500000" height="11.525391" filterUnits="userSpaceOnUse" color-interpolation-filters="sRGB">
			<feFlood flood-opacity="0" result="BackgroundImageFix"/>
			<feBlend mode="normal" in="SourceGraphic" in2="BackgroundImageFix" result="shape"/>
			<feColorMatrix in="SourceAlpha" type="matrix" values="0 0 0 0 0 0 0 0 0 0 0 0 0 0 0 0 0 0 127 0" result="hardAlpha"/>
			<feOffset dx="1.35294" dy="1.35294"/>
			<feGaussianBlur stdDeviation="0.45098"/>
			<feComposite in2="hardAlpha" operator="arithmetic" k2="-1" k3="1"/>
			<feColorMatrix type="matrix" values="0 0 0 0 0 0 0 0 0 0.36863 0 0 0 0 0.74118 0 0 0 0.5 0"/>
			<feBlend mode="normal" in2="shape" result="effect_innerShadow_1"/>
		</filter>
	</defs>
	<g filter="url(#filter_5504_28940_dd)">
		<path d="M4.74 39.13C8.74 37.78 16.25 36.02 22.54 39.06C22.83 39.2 23.16 39.2 23.44 39.06C29.73 36.02 37.25 37.78 41.25 39.13C42.58 39.59 44.08 38.61 44.08 37.2L44.08 16.25C44.08 15.11 43.41 14.06 42.32 13.71C36.63 11.88 28.66 12.05 23.38 14.21C23.13 14.31 22.85 14.31 22.61 14.21C17.33 12.05 9.36 11.88 3.66 13.71C2.58 14.06 1.91 15.11 1.91 16.25L1.91 37.2C1.91 38.61 3.4 39.59 4.74 39.13Z" fill="#576684" fill-opacity="1.000000" fill-rule="nonzero"/>
	</g>
	<g filter="url(#filter_5504_28941_dd)">
		<path d="M5.23 35.82C10.25 33.99 17.3 34.06 22.15 36.04C22.69 36.26 23.3 36.26 23.84 36.04C28.69 34.06 35.74 33.99 40.75 35.82C41.42 36.07 42.16 35.59 42.16 34.89L42.16 12.7C42.16 11.97 41.74 11.29 41.06 11.02C36.03 9.07 28.79 9.1 23.84 11.12C23.3 11.34 22.69 11.34 22.15 11.12C17.2 9.1 9.96 9.07 4.93 11.02C4.25 11.29 3.83 11.97 3.83 12.7L3.83 34.89C3.83 35.59 4.57 36.07 5.23 35.82Z" fill="#ACB4C9" fill-opacity="1.000000" fill-rule="nonzero"/>
	</g>
	<path d="M22.04 11.07C22.07 11.09 22.11 11.1 22.15 11.12C22.69 11.34 23.3 11.34 23.84 11.12C23.88 11.1 23.91 11.09 23.95 11.07L23.95 35.99C23.91 36 23.88 36.02 23.84 36.04C23.3 36.26 22.69 36.26 22.15 36.04C22.11 36.02 22.07 36 22.04 35.99L22.04 11.07Z" fill="#576684" fill-opacity="1.000000" fill-rule="nonzero"/>
	<g filter="url(#filter_5504_28943_dd)">
		<path d="M7.66 20.12C7.66 20.76 8.29 21.23 8.92 21.08C11.82 20.4 15 20.4 17.9 21.08C18.53 21.23 19.16 20.76 19.16 20.12L19.16 19.16C19.16 18.53 18.75 17.97 18.14 17.81C15.09 17.06 11.72 17.06 8.67 17.81C8.07 17.97 7.66 18.53 7.66 19.16L7.66 20.12ZM7.66 27.78C7.66 28.43 8.29 28.89 8.92 28.74C11.82 28.06 15 28.06 17.9 28.74C18.53 28.89 19.16 28.43 19.16 27.78L19.16 26.82C19.16 26.19 18.75 25.63 18.14 25.48C15.09 24.72 11.72 24.72 8.67 25.48C8.07 25.63 7.66 26.19 7.66 26.82L7.66 27.78Z" fill="#576684" fill-opacity="1.000000" fill-rule="evenodd"/>
	</g>
	<g filter="url(#filter_5504_28944_dd)">
		<path d="M38.33 20.12C38.33 20.76 37.7 21.23 37.07 21.08C34.17 20.4 30.99 20.4 28.08 21.08C27.46 21.23 26.83 20.76 26.83 20.12L26.83 19.16C26.83 18.53 27.23 17.97 27.84 17.81C30.89 17.06 34.26 17.06 37.31 17.81C37.92 17.97 38.33 18.53 38.33 19.16L38.33 20.12ZM38.33 27.78C38.33 28.43 37.7 28.89 37.07 28.74C34.17 28.06 30.99 28.06 28.08 28.74C27.46 28.89 26.83 28.43 26.83 27.78L26.83 26.82C26.83 26.19 27.23 25.63 27.84 25.48C30.89 24.72 34.26 24.72 37.31 25.48C37.92 25.63 38.33 26.19 38.33 26.82L38.33 27.78Z" fill="#576684" fill-opacity="1.000000" fill-rule="evenodd"/>
	</g>
</svg>
