<svg width="46.000000" height="46.000000" viewBox="0 0 46 46" fill="none" xmlns="http://www.w3.org/2000/svg" xmlns:xlink="http://www.w3.org/1999/xlink">
	<desc>
			Created with Pixso.
	</desc>
	<defs>
		<filter id="filter_5504_28976_dd" x="3.833984" y="3.833984" width="38.333984" height="21.083984" filterUnits="userSpaceOnUse" color-interpolation-filters="sRGB">
			<feFlood flood-opacity="0" result="BackgroundImageFix"/>
			<feBlend mode="normal" in="SourceGraphic" in2="BackgroundImageFix" result="shape"/>
			<feColorMatrix in="SourceAlpha" type="matrix" values="0 0 0 0 0 0 0 0 0 0 0 0 0 0 0 0 0 0 127 0" result="hardAlpha"/>
			<feOffset dx="1.35294" dy="1.35294"/>
			<feGaussianBlur stdDeviation="0.45098"/>
			<feComposite in2="hardAlpha" operator="arithmetic" k2="-1" k3="1"/>
			<feColorMatrix type="matrix" values="0 0 0 0 0 0 0 0 0 0.36863 0 0 0 0 0.74118 0 0 0 0.5 0"/>
			<feBlend mode="normal" in2="shape" result="effect_innerShadow_1"/>
		</filter>
		<filter id="filter_5504_28977_dd" x="13.416016" y="15.333984" width="23.000000" height="25.875000" filterUnits="userSpaceOnUse" color-interpolation-filters="sRGB">
			<feFlood flood-opacity="0" result="BackgroundImageFix"/>
			<feBlend mode="normal" in="SourceGraphic" in2="BackgroundImageFix" result="shape"/>
			<feColorMatrix in="SourceAlpha" type="matrix" values="0 0 0 0 0 0 0 0 0 0 0 0 0 0 0 0 0 0 127 0" result="hardAlpha"/>
			<feOffset dx="1" dy="1"/>
			<feGaussianBlur stdDeviation="0.666667"/>
			<feComposite in2="hardAlpha" operator="arithmetic" k2="-1" k3="1"/>
			<feColorMatrix type="matrix" values="0 0 0 0 0.53333 0 0 0 0 0.64706 0 0 0 0 0.74902 0 0 0 0.6 0"/>
			<feBlend mode="normal" in2="shape" result="effect_innerShadow_1"/>
			<feColorMatrix in="SourceAlpha" type="matrix" values="0 0 0 0 0 0 0 0 0 0 0 0 0 0 0 0 0 0 127 0" result="hardAlpha"/>
			<feOffset dx="-1" dy="-2"/>
			<feGaussianBlur stdDeviation="0.666667"/>
			<feComposite in2="hardAlpha" operator="arithmetic" k2="-1" k3="1"/>
			<feColorMatrix type="matrix" values="0 0 0 0 0.53333 0 0 0 0 0.64706 0 0 0 0 0.74902 0 0 0 0.3 0"/>
			<feBlend mode="normal" in2="effect_innerShadow_1" result="effect_innerShadow_2"/>
			<feColorMatrix in="SourceAlpha" type="matrix" values="0 0 0 0 0 0 0 0 0 0 0 0 0 0 0 0 0 0 127 0" result="hardAlpha"/>
			<feOffset dx="-1" dy="-2"/>
			<feGaussianBlur stdDeviation="1"/>
			<feComposite in2="hardAlpha" operator="arithmetic" k2="-1" k3="1"/>
			<feColorMatrix type="matrix" values="0 0 0 0 1 0 0 0 0 1 0 0 0 0 1 0 0 0 0.4 0"/>
			<feBlend mode="normal" in2="effect_innerShadow_2" result="effect_innerShadow_3"/>
		</filter>
		<linearGradient x1="5.640844" y1="3.833984" x2="40.759766" y2="24.917328" id="paint_linear_5504_28976_0" gradientUnits="userSpaceOnUse">
			<stop stop-color="#0050EC"/>
			<stop offset="1.000000" stop-color="#39C7EC"/>
		</linearGradient>
	</defs>
	<g filter="url(#filter_5504_28976_dd)">
		<path d="M14.26 3.99C16.61 3.89 19.49 3.83 23 3.83C26.5 3.83 29.38 3.89 31.74 3.99C37.81 4.23 42.16 8.29 42.16 14.37C42.16 20.45 37.81 24.51 31.74 24.75C29.38 24.85 26.5 24.91 23 24.91C19.49 24.91 16.61 24.85 14.26 24.75C8.18 24.51 3.83 20.45 3.83 14.37C3.83 8.29 8.18 4.23 14.26 3.99Z" fill="url(#paint_linear_5504_28976_0)" fill-opacity="1.000000" fill-rule="nonzero"/>
	</g>
	<g filter="url(#filter_5504_28977_dd)">
		<path d="M20.52 17.55C20.58 16.54 21.2 15.6 22.21 15.41C22.45 15.36 22.7 15.33 22.95 15.33C23.2 15.33 23.46 15.36 23.71 15.41C24.71 15.6 25.32 16.52 25.41 17.52C25.58 19.43 25.83 22.58 25.83 24.15C25.83 24.15 29.39 24.15 32.87 25.13C35.09 25.76 36.47 27.81 36.41 30.09C36.36 32.29 36.01 35.28 34.86 38.41C34.33 39.85 33.08 40.87 31.54 41.02C30.57 41.13 29.26 41.2 27.57 41.2C26.08 41.2 24.89 41.14 23.96 41.06C22.13 40.9 20.53 39.95 19.32 38.59C16.92 35.91 15 33.3 13.96 31.83C13.4 31.05 13.19 29.28 13.71 28.47C14.75 26.85 16.41 27.64 17.95 28.79C19.3 29.8 20.06 30.53 20.06 30.53C20.06 25.18 20.35 20.07 20.52 17.55Z" fill="#ACB4C9" fill-opacity="1.000000" fill-rule="evenodd"/>
	</g>
</svg>
