<svg width="34.000000" height="34.000000" viewBox="0 0 34 34" fill="none" xmlns="http://www.w3.org/2000/svg" xmlns:xlink="http://www.w3.org/1999/xlink">
	<desc>
			Created with Pixso.
	</desc>
	<defs>
		<filter id="filter_5504_29081_dd" x="2.998047" y="3.000000" width="25.199219" height="28.000000" filterUnits="userSpaceOnUse" color-interpolation-filters="sRGB">
			<feFlood flood-opacity="0" result="BackgroundImageFix"/>
			<feBlend mode="normal" in="SourceGraphic" in2="BackgroundImageFix" result="shape"/>
			<feColorMatrix in="SourceAlpha" type="matrix" values="0 0 0 0 0 0 0 0 0 0 0 0 0 0 0 0 0 0 127 0" result="hardAlpha"/>
			<feOffset dx="1" dy="1"/>
			<feGaussianBlur stdDeviation="0.666667"/>
			<feComposite in2="hardAlpha" operator="arithmetic" k2="-1" k3="1"/>
			<feColorMatrix type="matrix" values="0 0 0 0 0.53333 0 0 0 0 0.64706 0 0 0 0 0.74902 0 0 0 0.6 0"/>
			<feBlend mode="normal" in2="shape" result="effect_innerShadow_1"/>
			<feColorMatrix in="SourceAlpha" type="matrix" values="0 0 0 0 0 0 0 0 0 0 0 0 0 0 0 0 0 0 127 0" result="hardAlpha"/>
			<feOffset dx="-1" dy="-2"/>
			<feGaussianBlur stdDeviation="0.666667"/>
			<feComposite in2="hardAlpha" operator="arithmetic" k2="-1" k3="1"/>
			<feColorMatrix type="matrix" values="0 0 0 0 0.53333 0 0 0 0 0.64706 0 0 0 0 0.74902 0 0 0 0.3 0"/>
			<feBlend mode="normal" in2="effect_innerShadow_1" result="effect_innerShadow_2"/>
			<feColorMatrix in="SourceAlpha" type="matrix" values="0 0 0 0 0 0 0 0 0 0 0 0 0 0 0 0 0 0 127 0" result="hardAlpha"/>
			<feOffset dx="-1" dy="-2"/>
			<feGaussianBlur stdDeviation="1"/>
			<feComposite in2="hardAlpha" operator="arithmetic" k2="-1" k3="1"/>
			<feColorMatrix type="matrix" values="0 0 0 0 1 0 0 0 0 1 0 0 0 0 1 0 0 0 0.4 0"/>
			<feBlend mode="normal" in2="effect_innerShadow_2" result="effect_innerShadow_3"/>
		</filter>
		<filter id="filter_5504_29082_dd" x="3.121094" y="3.046875" width="8.976562" height="9.054688" filterUnits="userSpaceOnUse" color-interpolation-filters="sRGB">
			<feFlood flood-opacity="0" result="BackgroundImageFix"/>
			<feBlend mode="normal" in="SourceGraphic" in2="BackgroundImageFix" result="shape"/>
			<feColorMatrix in="SourceAlpha" type="matrix" values="0 0 0 0 0 0 0 0 0 0 0 0 0 0 0 0 0 0 127 0" result="hardAlpha"/>
			<feOffset dx="1.35294" dy="1.35294"/>
			<feGaussianBlur stdDeviation="0.45098"/>
			<feComposite in2="hardAlpha" operator="arithmetic" k2="-1" k3="1"/>
			<feColorMatrix type="matrix" values="0 0 0 0 0 0 0 0 0 0.36863 0 0 0 0 0.74118 0 0 0 0.5 0"/>
			<feBlend mode="normal" in2="shape" result="effect_innerShadow_1"/>
		</filter>
		<filter id="filter_5504_29083_dd" x="18.273438" y="17.000000" width="12.726562" height="11.455078" filterUnits="userSpaceOnUse" color-interpolation-filters="sRGB">
			<feFlood flood-opacity="0" result="BackgroundImageFix"/>
			<feBlend mode="normal" in="SourceGraphic" in2="BackgroundImageFix" result="shape"/>
			<feColorMatrix in="SourceAlpha" type="matrix" values="0 0 0 0 0 0 0 0 0 0 0 0 0 0 0 0 0 0 127 0" result="hardAlpha"/>
			<feOffset dx="1.35294" dy="1.35294"/>
			<feGaussianBlur stdDeviation="0.45098"/>
			<feComposite in2="hardAlpha" operator="arithmetic" k2="-1" k3="1"/>
			<feColorMatrix type="matrix" values="0 0 0 0 0 0 0 0 0 0.36863 0 0 0 0 0.74118 0 0 0 0.5 0"/>
			<feBlend mode="normal" in2="shape" result="effect_innerShadow_1"/>
		</filter>
		<linearGradient x1="11.674566" y1="3.046875" x2="3.451188" y2="12.102369" id="paint_linear_5504_29082_0" gradientUnits="userSpaceOnUse">
			<stop stop-color="#0050EC"/>
			<stop offset="1.000000" stop-color="#39C7EC"/>
		</linearGradient>
	</defs>
	<g filter="url(#filter_5504_29081_dd)">
		<path d="M11.78 3.04C11.78 3.04 10.07 3.69 6.92 6.84C3.78 9.98 3.12 11.7 3.12 11.71C3.04 13.21 2.99 14.96 2.99 17C2.99 23.08 3.41 26.58 3.77 28.46C4 29.67 4.94 30.49 6.16 30.63C7.81 30.8 10.71 31 15.59 31C20.47 31 23.38 30.8 25.02 30.63C26.25 30.49 27.19 29.67 27.41 28.46C27.77 26.58 28.19 23.08 28.19 17C28.19 10.91 27.77 7.41 27.41 5.53C27.19 4.32 26.25 3.5 25.02 3.36C23.38 3.19 20.47 3 15.59 3C14.16 3 12.89 3.01 11.78 3.04Z" fill="#D0E2F3" fill-opacity="1.000000" fill-rule="nonzero"/>
	</g>
	<g filter="url(#filter_5504_29082_dd)">
		<path d="M3.12 11.72C5.13 12.22 7.51 12.26 9.57 11.63C10.44 11.36 11.11 10.68 11.41 9.83C12.14 7.68 12.32 5.06 11.78 3.04C11.78 3.04 10.07 3.7 6.92 6.85C3.77 10 3.12 11.72 3.12 11.72Z" fill="url(#paint_linear_5504_29082_0)" fill-opacity="1.000000" fill-rule="nonzero"/>
	</g>
	<g filter="url(#filter_5504_29083_dd)">
		<path d="M30.53 17.88C31 18.24 31.14 18.93 30.84 19.46C28.52 23.58 26.41 26.32 25.16 27.79C24.49 28.58 23.42 28.68 22.66 27.99C21.57 27.01 19.98 25.34 18.45 22.91C18.16 22.45 18.22 21.84 18.58 21.44L19.5 20.43C19.93 19.96 20.63 19.94 21.07 20.41C22.58 22.06 23.76 23.56 23.76 23.56C23.76 23.56 25.5 20.78 28.18 17.41C28.56 16.94 29.2 16.86 29.66 17.22L30.53 17.88Z" fill="#576684" fill-opacity="1.000000" fill-rule="evenodd"/>
	</g>
</svg>
