<svg width="46.000000" height="46.000000" viewBox="0 0 46 46" fill="none" xmlns="http://www.w3.org/2000/svg" xmlns:xlink="http://www.w3.org/1999/xlink">
	<desc>
			Created with Pixso.
	</desc>
	<defs>
		<filter id="filter_5504_29035_dd" x="3.835938" y="3.833984" width="38.333984" height="38.333984" filterUnits="userSpaceOnUse" color-interpolation-filters="sRGB">
			<feFlood flood-opacity="0" result="BackgroundImageFix"/>
			<feBlend mode="normal" in="SourceGraphic" in2="BackgroundImageFix" result="shape"/>
			<feColorMatrix in="SourceAlpha" type="matrix" values="0 0 0 0 0 0 0 0 0 0 0 0 0 0 0 0 0 0 127 0" result="hardAlpha"/>
			<feOffset dx="1" dy="1"/>
			<feGaussianBlur stdDeviation="0.666667"/>
			<feComposite in2="hardAlpha" operator="arithmetic" k2="-1" k3="1"/>
			<feColorMatrix type="matrix" values="0 0 0 0 0.53333 0 0 0 0 0.64706 0 0 0 0 0.74902 0 0 0 0.6 0"/>
			<feBlend mode="normal" in2="shape" result="effect_innerShadow_1"/>
			<feColorMatrix in="SourceAlpha" type="matrix" values="0 0 0 0 0 0 0 0 0 0 0 0 0 0 0 0 0 0 127 0" result="hardAlpha"/>
			<feOffset dx="-1" dy="-2"/>
			<feGaussianBlur stdDeviation="0.666667"/>
			<feComposite in2="hardAlpha" operator="arithmetic" k2="-1" k3="1"/>
			<feColorMatrix type="matrix" values="0 0 0 0 0.53333 0 0 0 0 0.64706 0 0 0 0 0.74902 0 0 0 0.3 0"/>
			<feBlend mode="normal" in2="effect_innerShadow_1" result="effect_innerShadow_2"/>
			<feColorMatrix in="SourceAlpha" type="matrix" values="0 0 0 0 0 0 0 0 0 0 0 0 0 0 0 0 0 0 127 0" result="hardAlpha"/>
			<feOffset dx="-1" dy="-2"/>
			<feGaussianBlur stdDeviation="1"/>
			<feComposite in2="hardAlpha" operator="arithmetic" k2="-1" k3="1"/>
			<feColorMatrix type="matrix" values="0 0 0 0 1 0 0 0 0 1 0 0 0 0 1 0 0 0 0.4 0"/>
			<feBlend mode="normal" in2="effect_innerShadow_2" result="effect_innerShadow_3"/>
		</filter>
		<filter id="filter_5504_29036_dd" x="3.859375" y="12.457031" width="32.558594" height="20.833984" filterUnits="userSpaceOnUse" color-interpolation-filters="sRGB">
			<feFlood flood-opacity="0" result="BackgroundImageFix"/>
			<feBlend mode="normal" in="SourceGraphic" in2="BackgroundImageFix" result="shape"/>
			<feColorMatrix in="SourceAlpha" type="matrix" values="0 0 0 0 0 0 0 0 0 0 0 0 0 0 0 0 0 0 127 0" result="hardAlpha"/>
			<feOffset dx="1.35294" dy="1.35294"/>
			<feGaussianBlur stdDeviation="1.35294"/>
			<feComposite in2="hardAlpha" operator="arithmetic" k2="-1" k3="1"/>
			<feColorMatrix type="matrix" values="0 0 0 0 0 0 0 0 0 0.36863 0 0 0 0 0.74118 0 0 0 0.4 0"/>
			<feBlend mode="normal" in2="shape" result="effect_innerShadow_1"/>
		</filter>
		<linearGradient x1="5.394081" y1="33.291023" x2="35.223244" y2="12.457172" id="paint_linear_5504_29036_0" gradientUnits="userSpaceOnUse">
			<stop stop-color="#0050EC"/>
			<stop offset="1.000000" stop-color="#39C7EC"/>
		</linearGradient>
	</defs>
	<g filter="url(#filter_5504_29035_dd)">
		<path d="M7.24 40.97C9.8 41.51 14.61 42.16 23 42.16C31.39 42.16 36.2 41.51 38.75 40.97C40.37 40.62 41.46 39.32 41.63 37.67C41.88 35.23 42.16 30.75 42.16 23C42.16 15.24 41.88 10.76 41.63 8.32C41.46 6.67 40.37 5.37 38.75 5.03C36.2 4.48 31.39 3.83 23 3.83C14.61 3.83 9.8 4.48 7.24 5.03C5.62 5.37 4.54 6.67 4.37 8.32C4.12 10.76 3.83 15.24 3.83 23C3.83 30.75 4.12 35.23 4.37 37.67C4.54 39.32 5.62 40.62 7.24 40.97Z" fill="#D0E2F3" fill-opacity="1.000000" fill-rule="nonzero"/>
	</g>
	<g filter="url(#filter_5504_29036_dd)">
		<path d="M11.89 19.7C9.8 17.97 7.05 15.53 4.05 12.45C3.96 14.2 3.89 16.35 3.85 18.98C5.72 20.75 7.42 22.22 8.83 23.39C10.09 24.43 11.12 25.24 11.84 25.78C12.21 26.05 12.49 26.26 12.69 26.41C12.79 26.48 12.86 26.53 12.92 26.57L12.98 26.61L13 26.62L13.01 26.63C14.07 27.36 15.52 27.13 16.29 26.1L20.28 20.77C22.77 23.51 24.79 25.5 26.27 26.89C27.12 27.69 27.8 28.28 28.29 28.69C27.35 28.67 26.3 28.65 25.25 28.67C24.08 28.69 23.02 29.35 23 30.51C23 30.58 23 30.65 23 30.72C23 30.95 23.02 31.16 23.05 31.35C23.18 32.34 24.09 32.92 25.09 33.04C28.88 33.48 32.13 33.24 34.03 33C35.14 32.86 35.99 32.01 36.13 30.91C36.37 29 36.61 25.75 36.16 21.96C36.05 20.97 35.47 20.05 34.48 19.92C34.29 19.89 34.08 19.87 33.85 19.87C33.78 19.87 33.71 19.87 33.64 19.87C32.48 19.89 31.82 20.96 31.8 22.12C31.78 23.26 31.8 24.4 31.83 25.4C31.74 25.33 31.63 25.24 31.5 25.13C31.07 24.77 30.41 24.2 29.54 23.39C27.81 21.77 25.23 19.19 21.92 15.42C21.45 14.87 20.75 14.57 20.03 14.6C19.31 14.63 18.64 14.98 18.2 15.56L18.2 15.56L18.19 15.57L18.19 15.57L18.19 15.58L13.89 21.31C13.33 20.87 12.65 20.34 11.89 19.7Z" fill="url(#paint_linear_5504_29036_0)" fill-opacity="1.000000" fill-rule="evenodd"/>
	</g>
</svg>
