<svg width="46.000000" height="46.000000" viewBox="0 0 46 46" fill="none" xmlns="http://www.w3.org/2000/svg" xmlns:xlink="http://www.w3.org/1999/xlink">
	<desc>
			Created with Pixso.
	</desc>
	<defs>
		<filter id="filter_5504_29066_dd" x="3.835938" y="3.833984" width="38.333984" height="38.333984" filterUnits="userSpaceOnUse" color-interpolation-filters="sRGB">
			<feFlood flood-opacity="0" result="BackgroundImageFix"/>
			<feBlend mode="normal" in="SourceGraphic" in2="BackgroundImageFix" result="shape"/>
			<feColorMatrix in="SourceAlpha" type="matrix" values="0 0 0 0 0 0 0 0 0 0 0 0 0 0 0 0 0 0 127 0" result="hardAlpha"/>
			<feOffset dx="1" dy="1"/>
			<feGaussianBlur stdDeviation="0.666667"/>
			<feComposite in2="hardAlpha" operator="arithmetic" k2="-1" k3="1"/>
			<feColorMatrix type="matrix" values="0 0 0 0 0.53333 0 0 0 0 0.64706 0 0 0 0 0.74902 0 0 0 0.6 0"/>
			<feBlend mode="normal" in2="shape" result="effect_innerShadow_1"/>
			<feColorMatrix in="SourceAlpha" type="matrix" values="0 0 0 0 0 0 0 0 0 0 0 0 0 0 0 0 0 0 127 0" result="hardAlpha"/>
			<feOffset dx="-1" dy="-2"/>
			<feGaussianBlur stdDeviation="0.666667"/>
			<feComposite in2="hardAlpha" operator="arithmetic" k2="-1" k3="1"/>
			<feColorMatrix type="matrix" values="0 0 0 0 0.53333 0 0 0 0 0.64706 0 0 0 0 0.74902 0 0 0 0.3 0"/>
			<feBlend mode="normal" in2="effect_innerShadow_1" result="effect_innerShadow_2"/>
			<feColorMatrix in="SourceAlpha" type="matrix" values="0 0 0 0 0 0 0 0 0 0 0 0 0 0 0 0 0 0 127 0" result="hardAlpha"/>
			<feOffset dx="-1" dy="-2"/>
			<feGaussianBlur stdDeviation="1"/>
			<feComposite in2="hardAlpha" operator="arithmetic" k2="-1" k3="1"/>
			<feColorMatrix type="matrix" values="0 0 0 0 1 0 0 0 0 1 0 0 0 0 1 0 0 0 0.4 0"/>
			<feBlend mode="normal" in2="effect_innerShadow_2" result="effect_innerShadow_3"/>
		</filter>
		<filter id="filter_5504_29067_dd" x="9.000000" y="9.000000" width="28.000000" height="28.000000" filterUnits="userSpaceOnUse" color-interpolation-filters="sRGB">
			<feFlood flood-opacity="0" result="BackgroundImageFix"/>
			<feBlend mode="normal" in="SourceGraphic" in2="BackgroundImageFix" result="shape"/>
			<feColorMatrix in="SourceAlpha" type="matrix" values="0 0 0 0 0 0 0 0 0 0 0 0 0 0 0 0 0 0 127 0" result="hardAlpha"/>
			<feOffset dx="1.35294" dy="1.35294"/>
			<feGaussianBlur stdDeviation="0.45098"/>
			<feComposite in2="hardAlpha" operator="arithmetic" k2="-1" k3="1"/>
			<feColorMatrix type="matrix" values="0 0 0 0 0 0 0 0 0 0.36863 0 0 0 0 0.74118 0 0 0 0.5 0"/>
			<feBlend mode="normal" in2="shape" result="effect_innerShadow_1"/>
		</filter>
		<linearGradient x1="10.319792" y1="8.999998" x2="35.971870" y2="37.000008" id="paint_linear_5504_29067_0" gradientUnits="userSpaceOnUse">
			<stop stop-color="#39C7EC"/>
			<stop offset="0.000100" stop-color="#39C7EC"/>
			<stop offset="1.000000" stop-color="#0050EC"/>
		</linearGradient>
	</defs>
	<g filter="url(#filter_5504_29066_dd)">
		<path d="M7.24 40.97C9.8 41.51 14.61 42.16 23 42.16C31.39 42.16 36.2 41.51 38.75 40.97C40.37 40.62 41.46 39.32 41.63 37.67C41.88 35.23 42.16 30.75 42.16 23C42.16 15.24 41.88 10.76 41.63 8.32C41.46 6.67 40.37 5.37 38.75 5.03C36.2 4.48 31.39 3.83 23 3.83C14.61 3.83 9.8 4.48 7.24 5.03C5.62 5.37 4.54 6.67 4.37 8.32C4.12 10.76 3.83 15.24 3.83 23C3.83 30.75 4.12 35.23 4.37 37.67C4.54 39.32 5.62 40.62 7.24 40.97Z" fill="#D0E2F3" fill-opacity="1.000000" fill-rule="nonzero"/>
	</g>
	<g filter="url(#filter_5504_29067_dd)">
		<path d="M15.46 21.92C13.74 21.92 12.1 21.24 10.89 20.03C9.68 18.81 9 17.17 9 15.46C9 13.74 9.68 12.1 10.89 10.89C12.1 9.68 13.74 9 15.46 9C17.17 9 18.81 9.68 20.03 10.89C21.24 12.1 21.92 13.74 21.92 15.46C21.92 17.17 21.24 18.81 20.03 20.03C18.81 21.24 17.17 21.92 15.46 21.92ZM18.69 15.46C18.69 16.31 18.35 17.14 17.74 17.74C17.14 18.35 16.31 18.69 15.46 18.69C14.6 18.69 13.78 18.35 13.17 17.74C12.57 17.14 12.23 16.31 12.23 15.46C12.23 14.6 12.57 13.78 13.17 13.17C13.78 12.57 14.6 12.23 15.46 12.23C16.31 12.23 17.14 12.57 17.74 13.17C18.35 13.78 18.69 14.6 18.69 15.46ZM30.53 37C28.82 37 27.18 36.31 25.96 35.1C24.75 33.89 24.07 32.25 24.07 30.53C24.07 28.82 24.75 27.18 25.96 25.96C27.18 24.75 28.82 24.07 30.53 24.07C32.25 24.07 33.89 24.75 35.1 25.96C36.31 27.18 37 28.82 37 30.53C37 32.25 36.31 33.89 35.1 35.1C33.89 36.31 32.25 37 30.53 37ZM33.76 30.53C33.76 31.39 33.42 32.21 32.82 32.82C32.21 33.42 31.39 33.76 30.53 33.76C29.68 33.76 28.85 33.42 28.25 32.82C27.64 32.21 27.3 31.39 27.3 30.53C27.3 29.68 27.64 28.85 28.25 28.25C28.85 27.64 29.68 27.3 30.53 27.3C31.39 27.3 32.21 27.64 32.82 28.25C33.42 28.85 33.76 29.68 33.76 30.53ZM35.44 12.83C35.73 12.52 35.89 12.12 35.88 11.7C35.87 11.28 35.7 10.88 35.41 10.58C35.11 10.29 34.71 10.12 34.29 10.11C33.87 10.1 33.47 10.26 33.16 10.55L10.55 33.16C10.39 33.31 10.26 33.49 10.17 33.69C10.08 33.88 10.04 34.1 10.03 34.32C10.03 34.53 10.07 34.75 10.15 34.95C10.23 35.15 10.35 35.33 10.5 35.49C10.66 35.64 10.84 35.76 11.04 35.84C11.24 35.92 11.46 35.96 11.67 35.96C11.89 35.95 12.11 35.91 12.3 35.82C12.5 35.73 12.68 35.6 12.83 35.44L35.44 12.83Z" fill="url(#paint_linear_5504_29067_0)" fill-opacity="1.000000" fill-rule="evenodd"/>
	</g>
</svg>
