<svg width="46.000000" height="46.000000" viewBox="0 0 46 46" fill="none" xmlns="http://www.w3.org/2000/svg" xmlns:xlink="http://www.w3.org/1999/xlink">
	<desc>
			Created with Pixso.
	</desc>
	<defs>
		<filter id="filter_5504_28956_dd" x="3.833984" y="3.835938" width="38.333984" height="38.333984" filterUnits="userSpaceOnUse" color-interpolation-filters="sRGB">
			<feFlood flood-opacity="0" result="BackgroundImageFix"/>
			<feBlend mode="normal" in="SourceGraphic" in2="BackgroundImageFix" result="shape"/>
			<feColorMatrix in="SourceAlpha" type="matrix" values="0 0 0 0 0 0 0 0 0 0 0 0 0 0 0 0 0 0 127 0" result="hardAlpha"/>
			<feOffset dx="1" dy="1"/>
			<feGaussianBlur stdDeviation="0.666667"/>
			<feComposite in2="hardAlpha" operator="arithmetic" k2="-1" k3="1"/>
			<feColorMatrix type="matrix" values="0 0 0 0 0.53333 0 0 0 0 0.64706 0 0 0 0 0.74902 0 0 0 0.6 0"/>
			<feBlend mode="normal" in2="shape" result="effect_innerShadow_1"/>
			<feColorMatrix in="SourceAlpha" type="matrix" values="0 0 0 0 0 0 0 0 0 0 0 0 0 0 0 0 0 0 127 0" result="hardAlpha"/>
			<feOffset dx="-1" dy="-2"/>
			<feGaussianBlur stdDeviation="0.666667"/>
			<feComposite in2="hardAlpha" operator="arithmetic" k2="-1" k3="1"/>
			<feColorMatrix type="matrix" values="0 0 0 0 0.53333 0 0 0 0 0.64706 0 0 0 0 0.74902 0 0 0 0.3 0"/>
			<feBlend mode="normal" in2="effect_innerShadow_1" result="effect_innerShadow_2"/>
			<feColorMatrix in="SourceAlpha" type="matrix" values="0 0 0 0 0 0 0 0 0 0 0 0 0 0 0 0 0 0 127 0" result="hardAlpha"/>
			<feOffset dx="-1" dy="-2"/>
			<feGaussianBlur stdDeviation="1"/>
			<feComposite in2="hardAlpha" operator="arithmetic" k2="-1" k3="1"/>
			<feColorMatrix type="matrix" values="0 0 0 0 1 0 0 0 0 1 0 0 0 0 1 0 0 0 0.4 0"/>
			<feBlend mode="normal" in2="effect_innerShadow_2" result="effect_innerShadow_3"/>
		</filter>
		<filter id="filter_5504_28957_dd" x="19.166016" y="17.250000" width="7.666016" height="17.250000" filterUnits="userSpaceOnUse" color-interpolation-filters="sRGB">
			<feFlood flood-opacity="0" result="BackgroundImageFix"/>
			<feBlend mode="normal" in="SourceGraphic" in2="BackgroundImageFix" result="shape"/>
			<feColorMatrix in="SourceAlpha" type="matrix" values="0 0 0 0 0 0 0 0 0 0 0 0 0 0 0 0 0 0 127 0" result="hardAlpha"/>
			<feOffset dx="1.35294" dy="1.35294"/>
			<feGaussianBlur stdDeviation="0.45098"/>
			<feComposite in2="hardAlpha" operator="arithmetic" k2="-1" k3="1"/>
			<feColorMatrix type="matrix" values="0 0 0 0 0 0 0 0 0 0.36863 0 0 0 0 0.74118 0 0 0 0.5 0"/>
			<feBlend mode="normal" in2="shape" result="effect_innerShadow_1"/>
		</filter>
		<filter id="filter_5504_28958_dd" x="28.750000" y="11.500000" width="7.666016" height="23.000000" filterUnits="userSpaceOnUse" color-interpolation-filters="sRGB">
			<feFlood flood-opacity="0" result="BackgroundImageFix"/>
			<feBlend mode="normal" in="SourceGraphic" in2="BackgroundImageFix" result="shape"/>
			<feColorMatrix in="SourceAlpha" type="matrix" values="0 0 0 0 0 0 0 0 0 0 0 0 0 0 0 0 0 0 127 0" result="hardAlpha"/>
			<feOffset dx="1.35294" dy="1.35294"/>
			<feGaussianBlur stdDeviation="0.45098"/>
			<feComposite in2="hardAlpha" operator="arithmetic" k2="-1" k3="1"/>
			<feColorMatrix type="matrix" values="0 0 0 0 0 0 0 0 0 0.36863 0 0 0 0 0.74118 0 0 0 0.5 0"/>
			<feBlend mode="normal" in2="shape" result="effect_innerShadow_1"/>
		</filter>
		<filter id="filter_5504_28959_dd" x="9.583984" y="23.000000" width="7.666016" height="11.500000" filterUnits="userSpaceOnUse" color-interpolation-filters="sRGB">
			<feFlood flood-opacity="0" result="BackgroundImageFix"/>
			<feBlend mode="normal" in="SourceGraphic" in2="BackgroundImageFix" result="shape"/>
			<feColorMatrix in="SourceAlpha" type="matrix" values="0 0 0 0 0 0 0 0 0 0 0 0 0 0 0 0 0 0 127 0" result="hardAlpha"/>
			<feOffset dx="1.35294" dy="1.35294"/>
			<feGaussianBlur stdDeviation="0.45098"/>
			<feComposite in2="hardAlpha" operator="arithmetic" k2="-1" k3="1"/>
			<feColorMatrix type="matrix" values="0 0 0 0 0 0 0 0 0 0.36863 0 0 0 0 0.74118 0 0 0 0.5 0"/>
			<feBlend mode="normal" in2="shape" result="effect_innerShadow_1"/>
		</filter>
		<linearGradient x1="19.527388" y1="34.500008" x2="26.551170" y2="17.250011" id="paint_linear_5504_28957_0" gradientUnits="userSpaceOnUse">
			<stop stop-color="#0050EC"/>
			<stop offset="1.000000" stop-color="#39C7EC"/>
		</linearGradient>
		<linearGradient x1="29.111362" y1="34.500000" x2="36.135159" y2="11.500001" id="paint_linear_5504_28958_0" gradientUnits="userSpaceOnUse">
			<stop stop-color="#0050EC"/>
			<stop offset="1.000000" stop-color="#39C7EC"/>
		</linearGradient>
		<linearGradient x1="9.945354" y1="34.499996" x2="16.969143" y2="22.999998" id="paint_linear_5504_28959_0" gradientUnits="userSpaceOnUse">
			<stop stop-color="#0050EC"/>
			<stop offset="1.000000" stop-color="#39C7EC"/>
		</linearGradient>
	</defs>
	<g filter="url(#filter_5504_28956_dd)">
		<path d="M7.24 5.03C9.79 4.48 14.61 3.83 23 3.83C31.38 3.83 36.2 4.48 38.75 5.03C40.37 5.37 41.45 6.68 41.62 8.32C41.88 10.76 42.16 15.24 42.16 23C42.16 30.75 41.88 35.23 41.62 37.67C41.45 39.32 40.37 40.62 38.75 40.97C36.2 41.51 31.38 42.16 23 42.16C14.61 42.16 9.79 41.51 7.24 40.97C5.62 40.62 4.54 39.32 4.37 37.67C4.12 35.23 3.83 30.75 3.83 23C3.83 15.24 4.12 10.76 4.37 8.32C4.54 6.68 5.62 5.37 7.24 5.03Z" fill="#D0E2F3" fill-opacity="1.000000" fill-rule="nonzero"/>
	</g>
	<g filter="url(#filter_5504_28957_dd)">
		<path d="M20.06 34C20.61 34.25 21.53 34.5 23 34.5C24.46 34.5 25.38 34.25 25.93 34C26.45 33.77 26.69 33.25 26.72 32.68C26.77 31.74 26.83 29.8 26.83 25.87C26.83 21.94 26.77 20 26.72 19.06C26.69 18.49 26.45 17.97 25.93 17.74C25.38 17.5 24.46 17.25 23 17.25C21.53 17.25 20.61 17.5 20.06 17.74C19.54 17.97 19.3 18.49 19.27 19.06C19.22 20 19.16 21.94 19.16 25.87C19.16 29.8 19.22 31.74 19.27 32.68C19.3 33.25 19.54 33.77 20.06 34Z" fill="url(#paint_linear_5504_28957_0)" fill-opacity="1.000000" fill-rule="nonzero"/>
	</g>
	<g filter="url(#filter_5504_28958_dd)">
		<path d="M30.01 34.14C30.57 34.33 31.4 34.5 32.58 34.5C33.76 34.5 34.58 34.33 35.15 34.14C35.92 33.88 36.25 33.1 36.28 32.29C36.33 30.69 36.41 27.56 36.41 23C36.41 18.43 36.33 15.3 36.28 13.7C36.25 12.89 35.92 12.11 35.15 11.85C34.58 11.66 33.76 11.5 32.58 11.5C31.4 11.5 30.57 11.66 30.01 11.85C29.24 12.11 28.91 12.89 28.88 13.7C28.83 15.3 28.75 18.43 28.75 23C28.75 27.56 28.83 30.69 28.88 32.29C28.91 33.1 29.24 33.88 30.01 34.14Z" fill="url(#paint_linear_5504_28958_0)" fill-opacity="1.000000" fill-rule="nonzero"/>
	</g>
	<g filter="url(#filter_5504_28959_dd)">
		<path d="M10.48 34C11.03 34.25 11.95 34.5 13.41 34.5C14.88 34.5 15.8 34.25 16.35 34C16.86 33.77 17.11 33.25 17.15 32.68C17.2 32 17.25 30.79 17.25 28.75C17.25 26.7 17.2 25.5 17.15 24.81C17.11 24.24 16.86 23.72 16.35 23.49C15.8 23.25 14.88 23 13.41 23C11.95 23 11.03 23.25 10.48 23.49C9.96 23.72 9.71 24.24 9.67 24.81C9.63 25.5 9.58 26.7 9.58 28.75C9.58 30.79 9.63 32 9.67 32.68C9.71 33.25 9.96 33.77 10.48 34Z" fill="url(#paint_linear_5504_28959_0)" fill-opacity="1.000000" fill-rule="nonzero"/>
	</g>
</svg>
