<svg width="46.000000" height="46.000000" viewBox="0 0 46 46" fill="none" xmlns="http://www.w3.org/2000/svg" xmlns:xlink="http://www.w3.org/1999/xlink">
	<desc>
			Created with Pixso.
	</desc>
	<defs>
		<filter id="filter_5504_28973_dd" x="3.835938" y="3.833984" width="38.333984" height="38.333984" filterUnits="userSpaceOnUse" color-interpolation-filters="sRGB">
			<feFlood flood-opacity="0" result="BackgroundImageFix"/>
			<feBlend mode="normal" in="SourceGraphic" in2="BackgroundImageFix" result="shape"/>
			<feColorMatrix in="SourceAlpha" type="matrix" values="0 0 0 0 0 0 0 0 0 0 0 0 0 0 0 0 0 0 127 0" result="hardAlpha"/>
			<feOffset dx="1" dy="1"/>
			<feGaussianBlur stdDeviation="0.666667"/>
			<feComposite in2="hardAlpha" operator="arithmetic" k2="-1" k3="1"/>
			<feColorMatrix type="matrix" values="0 0 0 0 0.53333 0 0 0 0 0.64706 0 0 0 0 0.74902 0 0 0 0.6 0"/>
			<feBlend mode="normal" in2="shape" result="effect_innerShadow_1"/>
			<feColorMatrix in="SourceAlpha" type="matrix" values="0 0 0 0 0 0 0 0 0 0 0 0 0 0 0 0 0 0 127 0" result="hardAlpha"/>
			<feOffset dx="-1" dy="-2"/>
			<feGaussianBlur stdDeviation="0.666667"/>
			<feComposite in2="hardAlpha" operator="arithmetic" k2="-1" k3="1"/>
			<feColorMatrix type="matrix" values="0 0 0 0 0.53333 0 0 0 0 0.64706 0 0 0 0 0.74902 0 0 0 0.3 0"/>
			<feBlend mode="normal" in2="effect_innerShadow_1" result="effect_innerShadow_2"/>
			<feColorMatrix in="SourceAlpha" type="matrix" values="0 0 0 0 0 0 0 0 0 0 0 0 0 0 0 0 0 0 127 0" result="hardAlpha"/>
			<feOffset dx="-1" dy="-2"/>
			<feGaussianBlur stdDeviation="1"/>
			<feComposite in2="hardAlpha" operator="arithmetic" k2="-1" k3="1"/>
			<feColorMatrix type="matrix" values="0 0 0 0 1 0 0 0 0 1 0 0 0 0 1 0 0 0 0.4 0"/>
			<feBlend mode="normal" in2="effect_innerShadow_2" result="effect_innerShadow_3"/>
		</filter>
		<filter id="filter_5504_28974_dd" x="9.000000" y="16.000000" width="28.000000" height="15.000000" filterUnits="userSpaceOnUse" color-interpolation-filters="sRGB">
			<feFlood flood-opacity="0" result="BackgroundImageFix"/>
			<feBlend mode="normal" in="SourceGraphic" in2="BackgroundImageFix" result="shape"/>
			<feColorMatrix in="SourceAlpha" type="matrix" values="0 0 0 0 0 0 0 0 0 0 0 0 0 0 0 0 0 0 127 0" result="hardAlpha"/>
			<feOffset dx="1.35294" dy="1.35294"/>
			<feGaussianBlur stdDeviation="0.45098"/>
			<feComposite in2="hardAlpha" operator="arithmetic" k2="-1" k3="1"/>
			<feColorMatrix type="matrix" values="0 0 0 0 0 0 0 0 0 0.36863 0 0 0 0 0.74118 0 0 0 0.5 0"/>
			<feBlend mode="normal" in2="shape" result="effect_innerShadow_1"/>
		</filter>
		<linearGradient x1="10.319792" y1="31.000004" x2="35.971878" y2="15.999995" id="paint_linear_5504_28974_0" gradientUnits="userSpaceOnUse">
			<stop stop-color="#0050EC"/>
			<stop offset="1.000000" stop-color="#39C7EC"/>
		</linearGradient>
	</defs>
	<g filter="url(#filter_5504_28973_dd)">
		<path d="M7.24 40.97C9.8 41.51 14.61 42.16 23 42.16C31.39 42.16 36.2 41.51 38.75 40.97C40.37 40.62 41.46 39.32 41.63 37.67C41.88 35.23 42.16 30.75 42.16 23C42.16 15.24 41.88 10.76 41.63 8.32C41.46 6.67 40.37 5.37 38.75 5.03C36.2 4.48 31.39 3.83 23 3.83C14.61 3.83 9.8 4.48 7.24 5.03C5.62 5.37 4.54 6.67 4.37 8.32C4.12 10.76 3.83 15.24 3.83 23C3.83 30.75 4.12 35.23 4.37 37.67C4.54 39.32 5.62 40.62 7.24 40.97Z" fill="#D0E2F3" fill-opacity="1.000000" fill-rule="nonzero"/>
	</g>
	<g filter="url(#filter_5504_28974_dd)">
		<path d="M35.18 25.88L35.18 23.8L34.41 23.8C32.69 23.8 31.82 24.33 31.82 25.38C31.82 26.3 32.28 26.76 33.2 26.76C33.83 26.76 34.49 26.47 35.18 25.88ZM37 27.91L35.57 27.91L35.42 26.95C34.55 27.71 33.63 28.08 32.68 28.08C30.9 28.08 30 27.27 30 25.65C30 24.72 30.37 24 31.09 23.48C31.88 22.92 33.02 22.65 34.53 22.65L35.18 22.65L35.18 21.85C35.18 20.81 34.56 20.28 33.34 20.28C32.54 20.28 31.67 20.45 30.74 20.79L30.47 19.68C31.57 19.2 32.7 18.96 33.84 18.96C35.94 18.96 37 19.85 37 21.62L37 27.91ZM29.47 19.12C28.89 22.37 27.97 25.3 26.72 27.91L24.46 27.91L21.73 19.12L23.71 19.12L25.4 24.52L25.78 26.14C26.66 23.74 27.25 21.4 27.54 19.12L29.47 19.12ZM18.73 25.88L18.73 23.8L17.97 23.8C16.24 23.8 15.38 24.33 15.38 25.38C15.38 26.3 15.84 26.76 16.75 26.76C17.38 26.76 18.04 26.47 18.73 25.88ZM20.55 27.91L19.13 27.91L18.98 26.95C18.1 27.71 17.19 28.08 16.24 28.08C14.45 28.08 13.56 27.27 13.56 25.65C13.56 24.72 13.92 24 14.65 23.48C15.43 22.92 16.58 22.65 18.09 22.65L18.73 22.65L18.73 21.85C18.73 20.81 18.12 20.28 16.9 20.28C16.1 20.28 15.23 20.45 14.29 20.79L14.02 19.68C15.13 19.2 16.25 18.96 17.4 18.96C19.5 18.96 20.55 19.85 20.55 21.62L20.55 27.91ZM11.9 26.67C11.9 28.59 11.25 30.03 9.94 31L9 30.2C9.41 29.72 9.69 29.14 9.83 28.47C9.93 28.01 9.98 27.38 9.98 26.57L9.98 16L11.9 16L11.9 26.67Z" fill="#FFFFFF" fill-opacity="1.000000" fill-rule="evenodd"/>
		<path d="M35.18 25.88L35.18 23.8L34.41 23.8C32.69 23.8 31.82 24.33 31.82 25.38C31.82 26.3 32.28 26.76 33.2 26.76C33.83 26.76 34.49 26.47 35.18 25.88ZM37 27.91L35.57 27.91L35.42 26.95C34.55 27.71 33.63 28.08 32.68 28.08C30.9 28.08 30 27.27 30 25.65C30 24.72 30.37 24 31.09 23.48C31.88 22.92 33.02 22.65 34.53 22.65L35.18 22.65L35.18 21.85C35.18 20.81 34.56 20.28 33.34 20.28C32.54 20.28 31.67 20.45 30.74 20.79L30.47 19.68C31.57 19.2 32.7 18.96 33.84 18.96C35.94 18.96 37 19.85 37 21.62L37 27.91ZM29.47 19.12C28.89 22.37 27.97 25.3 26.72 27.91L24.46 27.91L21.73 19.12L23.71 19.12L25.4 24.52L25.78 26.14C26.66 23.74 27.25 21.4 27.54 19.12L29.47 19.12ZM18.73 25.88L18.73 23.8L17.97 23.8C16.24 23.8 15.38 24.33 15.38 25.38C15.38 26.3 15.84 26.76 16.75 26.76C17.38 26.76 18.04 26.47 18.73 25.88ZM20.55 27.91L19.13 27.91L18.98 26.95C18.1 27.71 17.19 28.08 16.24 28.08C14.45 28.08 13.56 27.27 13.56 25.65C13.56 24.72 13.92 24 14.65 23.48C15.43 22.92 16.58 22.65 18.09 22.65L18.73 22.65L18.73 21.85C18.73 20.81 18.12 20.28 16.9 20.28C16.1 20.28 15.23 20.45 14.29 20.79L14.02 19.68C15.13 19.2 16.25 18.96 17.4 18.96C19.5 18.96 20.55 19.85 20.55 21.62L20.55 27.91ZM11.9 26.67C11.9 28.59 11.25 30.03 9.94 31L9 30.2C9.41 29.72 9.69 29.14 9.83 28.47C9.93 28.01 9.98 27.38 9.98 26.57L9.98 16L11.9 16L11.9 26.67Z" fill="url(#paint_linear_5504_28974_0)" fill-opacity="1.000000" fill-rule="evenodd"/>
	</g>
</svg>
